<svg width="576" height="108" viewBox="0 0 576 108" fill="none" xmlns="http://www.w3.org/2000/svg">
<g clip-path="url(#clip0)">
<path fill-rule="evenodd" clip-rule="evenodd" d="M69.2683 41.2874C68.6304 41.3458 67.9873 41.2766 67.3761 41.0837C64.0121 40.0273 63.5304 35.2299 66.7736 33.8814C67.4657 33.5678 68.2494 33.5267 68.9702 33.7661C69.6088 33.9666 70.0984 34.3267 70.5063 34.4704C70.9252 35.0562 71.3002 35.192 71.6988 36.0779C72.0774 36.8395 72.1907 37.7071 72.0204 38.5413C71.8749 39.219 71.5367 39.8395 71.0469 40.3271C70.5571 40.8146 69.937 41.1483 69.2621 41.2874H69.2683ZM38.0225 95.5977C34.6052 96.3067 38.9122 98.9312 41.6439 98.4196C43.6444 98.0437 42.7783 96.8594 41.6972 96.2388C40.8076 95.7288 39.1946 95.3545 38.0225 95.5977ZM43.431 31.3027C43.1878 31.4116 43.0246 31.3911 42.7281 31.5459C41.2438 32.3196 40.1344 34.3188 40.7495 36.2437C41.3002 37.9713 43.3792 39.5756 45.739 38.7703C48.9587 37.6649 49.6616 33.4534 46.7244 31.6927C45.9116 31.2064 44.4775 30.8447 43.4294 31.309L43.431 31.3027ZM39.8034 57.0058C37.9064 57.4464 36.2244 59.3745 36.863 61.7511C37.3337 63.5134 39.2511 65.252 41.5701 64.7514C43.4922 64.3424 45.1397 62.3827 44.5183 59.9588C44.079 58.2439 42.1444 56.4547 39.7987 56.9995L39.8034 57.0058ZM65.7976 58.1112C60.954 59.3903 62.1465 66.4805 67.2427 65.443C68.9122 65.1035 70.4718 63.1817 70.1956 61.0326C69.9634 59.2213 68.0649 57.5112 65.8023 58.1112H65.7976ZM16.6585 53.4213C12.5398 54.623 14.669 61.6484 18.4174 60.5746C22.4969 59.4061 20.4305 52.3206 16.6585 53.4213ZM19.5659 30.4847C15.4739 31.4464 15.7783 38.2223 19.9786 37.3586C21.5319 37.0349 22.6805 35.2962 22.8436 33.7061C23.0429 31.759 21.5539 30.0189 19.5659 30.4847ZM46.2631 11.1454C44.5748 11.5038 42.9038 12.4371 43.2662 14.5167C43.5487 16.1369 45.5916 16.9849 47.5529 16.6959C49.023 16.478 50.8965 15.09 50.396 13.2219C50.0021 11.7423 47.9498 10.7916 46.2631 11.1517V11.1454ZM63.6182 80.6704C58.7291 81.6526 59.2249 87.1305 63.6669 86.4862C65.0931 86.2794 66.8457 85.054 67.1188 83.4859C67.4734 81.4457 65.4289 80.3103 63.6182 80.6735V80.6704ZM87.4833 58.3876C83.7411 60.1483 85.0732 66.0968 88.0121 64.8745C91.5283 63.4139 90.5727 56.9348 87.4833 58.3876ZM16.8248 75.0519C15.0816 75.6204 15.5696 77.7364 16.4137 78.9255C19.238 82.9301 23.0398 80.4414 20.6501 76.931C19.9943 75.9709 18.4174 74.5355 16.8327 75.0519H16.8248ZM88.7338 37.7644C85.7526 39.1114 88.1062 45.4752 90.8112 44.283C93.5162 43.0907 91.3824 36.569 88.7338 37.7644ZM25.8735 10.7379C21.9054 11.4422 20.148 16.1369 23.8839 15.6505C25.2615 15.4753 26.6046 14.4504 27.2071 13.5519C28.1125 12.2034 27.8018 10.4016 25.8735 10.7443V10.7379ZM83.5623 78.4612C79.8829 79.7087 79.1517 84.6418 82.1219 83.5838C83.5984 83.0596 85.7385 80.7414 85.3133 79.1781C85.1093 78.4344 84.3232 78.2038 83.5623 78.4612ZM2.06488 51.0731C0.290298 52.2054 1.34626 58.0828 3.21185 57.1638C4.08266 56.7374 4.238 54.6372 4.03559 53.4781C3.88653 52.6096 3.11143 50.4004 2.06488 51.0684V51.0731ZM86.0476 19.9884C84.1648 20.6958 87.4315 25.82 89.3128 25.231C91.1941 24.642 87.9948 19.2604 86.0476 19.9884ZM5.24218 31.0642C3.29971 31.9864 2.06959 37.706 4.31488 36.8296C6.488 35.9816 7.32273 30.0757 5.24218 31.0642ZM56.4336 98.0374C57.885 99.5328 62.9592 97.8527 62.3583 96.5499C61.8389 95.4271 58.8248 95.7998 57.3688 96.6747C56.8306 96.9905 56.4273 97.281 56.4273 98.0374H56.4336ZM65.2092 2.93398C64.26 3.92566 69.4927 6.06694 70.3133 5.2758C71.2704 4.3536 65.9655 2.14443 65.2092 2.93398ZM86.432 15.8321C86.3269 15.2652 82.6004 11.9918 81.9603 11.4785C80.9922 10.7048 77.7929 7.98713 76.7636 7.63973C77.5042 9.19357 81.9415 12.9108 83.7286 14.1141L86.432 15.829V15.8321ZM24.9477 6.54225C26.9184 6.44434 32.3097 4.40413 34.2647 3.26402L36.1334 2.07179C36.2181 2.00705 36.3436 1.92809 36.4268 1.85387C36.7406 1.57279 36.5712 1.79229 36.7406 1.45278C34.7872 1.6549 29.523 3.94777 27.5884 4.95998C27.0597 5.2379 25.1391 6.12378 24.9556 6.53909L24.9477 6.54225ZM7.30703 23.9867C10.2458 22.7597 15.1538 16.5127 15.8473 13.4224C14.4697 13.9214 10.1988 19.6157 9.1381 21.0022C8.85411 21.3748 7.41216 23.5177 7.30703 23.9835V23.9867ZM56.7662 26.747C59.0319 25.1078 59.5011 24.9073 61.9441 23.6614C62.6658 23.3155 63.2448 23.0487 63.9634 22.7771C64.9048 22.4202 65.1182 21.9986 66.033 22.5797C67.1454 23.2887 69.0408 24.1019 70.4561 24.192C71.2139 24.293 73.8201 24.0877 74.0884 24.2299C74.7302 24.5646 75.7971 25.4537 76.362 25.9448C77.6909 27.0991 78.8975 28.4571 80.1841 30.1057C80.5576 30.5794 83.2626 34.2967 83.3614 34.9031C83.4038 35.1604 83.01 35.9453 82.8907 36.3053C82.7228 36.8389 82.5912 37.3833 82.4969 37.9349C82.2003 39.5851 82.4028 41.709 82.8499 43.3292C83.2893 44.9193 84.091 44.8672 81.8379 47.2548C79.6616 49.5588 76.4608 51.4363 73.4671 52.7928C72.6826 53.1481 72.6606 52.8086 72.0738 52.4343C66.3374 48.7755 59.0147 51.9116 56.6894 57.977C55.6852 60.592 55.5487 63.5813 56.6643 66.2942C57.1522 67.4817 57.8269 67.2558 55.2019 69.8266C53.8102 71.1894 52.2961 72.1432 50.5732 73.1728C49.7887 73.6386 45.8897 75.6614 45.2087 75.7704C44.9137 75.8178 44.2877 75.3535 43.9441 75.1956C42.397 74.4882 40.9629 74.0492 39.1381 73.9907C35.9153 73.8865 36.4252 75.0961 33.7077 72.9691C33.4158 72.7401 33.3939 72.6659 33.1083 72.5964C32.9514 72.3216 31.7746 71.3331 31.5094 71.0757C29.916 69.5521 28.4759 67.8737 27.2103 66.0652C25.1046 63.0886 25.2129 63.4802 25.7856 62.2043C28.4435 56.2652 25.0748 47.4807 18.1758 46.729C15.3625 46.4227 13.5832 48.0412 13.3259 48.027C12.1444 47.5849 10.5581 44.5925 9.95871 43.2897C9.34788 41.8266 8.83112 40.3254 8.41164 38.7956C8.15118 37.7739 8.25473 37.9665 8.37241 37.1122L8.65484 36.7348C9.39856 35.2189 10.0325 32.4618 10.067 30.7642C10.0921 29.5404 10.1078 29.6351 10.7228 28.6561C13.0544 24.9468 15.4629 23.0155 18.488 20.3468C19.398 19.5446 19.9629 21.0353 23.0131 20.4826C26.9639 19.7673 30.5743 17.4823 32.4666 13.8725C32.7815 13.2598 33.0142 12.6077 33.1585 11.9333C33.6041 9.73994 31.9033 9.94207 36.3107 6.96861C37.4121 6.24021 38.5548 5.57691 39.7328 4.98209C40.3117 4.68522 42.885 3.40298 43.5204 3.42982C44.8227 3.48351 45.3154 3.93356 48.5209 3.91303C50.738 3.89882 56.5952 3.18506 56.1716 0.789553C55.6679 0.0331595 54.9587 0.0363177 53.818 0.0442132C52.9723 0.0442132 51.5445 -0.0379005 50.7741 0.107378C52.8766 1.51752 45.4048 2.14601 45.3829 0.679015C45.4911 0.345823 45.7265 0.205282 46.1219 0.131064C45.1412 -0.07422 42.1585 -0.0884319 41.2579 0.456361C40.7307 0.772183 40.1329 1.03905 40.4279 1.73544C40.6114 2.16969 40.7291 1.8823 40.8986 2.42551C40.0936 3.4393 33.2291 6.41434 31.3933 7.13599C30.0597 7.66026 28.9143 6.57067 25.4451 8.13873C23.8577 8.85385 22.3787 9.79111 21.0518 10.9227C19.7762 12.0139 18.5994 13.244 17.7913 14.8184C17.3289 15.7225 17.1542 16.748 17.2908 17.7555C17.3944 18.534 16.6318 19.1183 15.932 19.9378C13.7197 22.5323 11.7537 23.9346 9.48172 25.9716C8.93883 26.4596 9.03768 26.4296 8.25787 26.2322C7.02147 25.501 5.1198 27.8902 4.5518 29.1188C3.47388 31.4464 1.18622 37.1612 1.41373 39.6799C1.80442 43.9861 4.82952 41.6111 5.06174 41.6316C6.35777 41.7422 9.58057 48.1755 10.4357 50.3073C10.9598 51.6148 10.795 51.19 10.3745 52.4075C9.89438 53.7939 9.69668 55.9605 9.92419 57.6012C10.6538 62.888 15.091 67.998 20.2014 66.9369C22.7526 66.4079 21.7563 65.1998 24.5523 68.0217C24.8912 68.3644 25.2192 68.7544 25.522 69.0939C25.6883 69.272 25.8454 69.4586 25.9927 69.6529C26.2845 70.0382 26.1998 70.0209 26.523 70.2009C26.578 70.4741 31.0434 76.7337 30.9917 77.5753C30.7218 78.218 30.364 78.5054 30.2417 79.3202C29.6454 80.0293 29.8776 82.54 30.375 83.8365C31.8201 87.5995 36.2605 90.3772 40.3588 90.5919C45.1601 90.843 49.773 87.928 49.7307 83.328C49.7213 82.2669 49.5314 81.8626 49.2945 80.9925C49.0685 80.1619 49.9503 79.7687 50.0963 79.1197C50.3724 78.9539 50.8368 78.3491 51.1711 77.9891C53.4054 75.5825 56.8196 72.9659 59.6046 71.3805C60.2589 71.0062 60.3436 70.7488 61.0434 71.1294C62.6486 72.0184 64.4953 72.3169 66.3782 72.2095C70.5832 71.9711 74.476 68.5633 75.874 64.4719C76.9143 61.4273 76.3039 60.4483 76.2788 58.7871C76.2568 57.4054 80.2594 53.3344 80.9561 52.6286C82.0544 51.5232 84.51 49.5224 85.8546 48.7976L86.2281 48.9098C86.4964 49.6125 90.1161 51.9953 93.0942 49.4435C94.7385 48.0349 95.5623 44.9951 95.4179 42.0517C95.261 38.8303 93.2621 34.4009 90.397 32.5502C89.5058 31.9738 87.6072 31.3895 86.6219 32.0686C85.7087 32.2265 85.9943 32.8581 84.7987 31.6153C81.5492 28.2392 80.5152 26.1153 78.1161 22.1123C77.3159 20.7763 78.568 21.5343 78.419 18.5435C78.1899 13.8377 71.0994 7.77711 64.6444 9.34201C61.5549 10.0289 59.9373 12.9471 60.7532 15.8811C60.8771 16.3359 61.1344 16.9344 61.2035 17.2739C61.3274 17.8803 60.8787 18.0397 60.8034 18.5198L60.4598 18.8593C59.0743 20.5853 58.2772 21.2738 56.5246 22.6918C56.1543 22.9918 55.1125 23.663 54.9556 23.8746L51.488 25.9274C50.3991 26.5069 50.6454 26.4011 49.5926 25.88C46.2411 24.1998 41.8494 24.6167 38.8667 26.7833C38.4901 27.058 38.4524 27.0217 38.1119 27.3644C37.8138 27.666 37.2647 27.8886 36.7108 28.6198C36.5649 28.8124 36.5696 28.8566 36.419 29.0461C35.4995 30.1957 36.0047 29.4993 35.2955 30.6947C34.7369 31.6343 34.6412 31.9059 34.2992 33.166C33.8775 34.7553 33.8743 36.4277 34.2898 38.0186C34.7103 39.6372 35.9184 42.2096 37.3792 43.1365C37.6742 43.3244 37.806 43.6655 38.9043 44.3461C40.2003 45.1483 41.3253 45.4783 42.9524 45.8273C44.5074 46.1605 46.7056 45.7989 47.9577 45.3883C49.5471 44.8641 50.2312 44.4109 51.5382 43.4476C53.2955 42.1543 55.2207 39.2867 55.4765 36.4095C55.8876 31.8001 54.0094 30.431 54.1711 29.6699C54.2777 29.1677 56.283 27.1054 56.7757 26.7485L56.7662 26.747ZM3.22754 65.1509C7.47335 66.5421 11.6611 79.4734 9.16634 79.0155C8.79919 78.9476 7.34626 76.4621 6.98852 75.8573C6.16478 74.4582 6.96655 75.0677 6.63392 73.7286C6.46341 73.0658 6.21699 72.4251 5.89961 71.8195C5.62118 71.2364 5.26021 70.697 4.82796 70.2183C4.4859 69.8598 4.42001 69.9261 4.05128 69.6766C3.75316 69.4761 3.78454 69.3845 3.56331 68.8192C2.76938 66.7932 2.21708 65.9468 3.22754 65.1556V65.1509ZM17.0555 87.8901C17.6674 87.6595 18.2495 87.2584 18.8975 86.881C19.2992 86.6426 19.3792 86.4878 19.8232 86.6426C21.422 87.2185 22.9382 88.0043 24.3327 88.9796C25.6287 89.9018 29.4775 93.0553 28.9629 95.285C28.2804 95.6151 28.0638 95.5645 27.4347 95.2171C26.6721 94.7971 24.3578 93.6017 23.862 93.1643L24.4221 92.9811C24.5084 91.7178 21.3029 89.5197 19.6946 89.665L19.5487 90.1782C19.1627 89.9082 18.7171 89.5244 18.2668 89.1486C17.4932 88.5012 17.1684 88.4128 17.0555 87.898V87.8901ZM69.2417 96.5752C69.3986 95.2156 71.5466 93.4612 72.397 92.7853C74.3834 91.2141 77.6078 89.4692 80.1512 88.7538C80.5544 88.6401 81.2573 88.5801 81.5084 88.4917C82.3557 88.1917 87.3562 83.2806 88.4027 81.9921C89.3614 80.8109 89.0649 81.0367 89.5685 79.764C90.4524 77.4596 91.5735 75.2547 92.9137 73.1854C93.4252 72.3737 95.1512 69.9498 95.9592 69.5534C95.7537 70.403 94.1658 73.5786 93.7626 74.1471C92.8965 75.3867 92.1936 76.8947 91.2929 78.3333C88.5361 82.7074 85.4718 85.6146 81.7657 88.9733C81.2213 89.4644 80.4242 90.0519 79.8829 90.464C78.5241 91.5062 78.8081 91.4825 77.7945 91.6199C76.7809 91.7573 74.0413 93.5906 73.6946 94.1923C73.3039 94.8697 73.4781 94.625 72.7532 95.004C71.9106 95.4477 70.0215 96.4788 69.2322 96.5673L69.2417 96.5752ZM2.35358 45.5605C3.84888 44.9288 5.44929 47.0464 5.94982 47.9481C8.15902 51.9527 8.31593 60.4988 5.03193 62.3574C4.64942 62.58 4.20655 62.6746 3.76718 62.6275C3.32782 62.5804 2.91469 62.394 2.58737 62.0953C2.3122 61.859 2.06572 61.5908 1.85306 61.2963C1.16896 60.2983 1.47492 61.1621 1.14385 60.6773C0.932034 60.3615 0.318541 55.9968 0.280884 55.3999C0.0737708 52.1643 -0.453426 50.1446 0.862997 47.1522C1.21132 46.3626 1.63653 45.8636 2.34574 45.5605H2.35358ZM72.5743 28.9798L69.7642 27.6344C66.3468 26.6601 62.9451 27.7418 60.6135 30.0931C58.2113 32.5297 57.364 36.2832 58.1799 39.6135C58.3141 40.1462 58.4813 40.6699 58.6805 41.1816C59.2893 42.7939 60.0534 42.3501 57.499 45.0315C56.791 45.7596 56.0328 46.4367 55.2302 47.0575C53.5403 48.3792 50.7741 50.0278 48.6402 51.0052C45.7704 52.3317 47.8714 51.8643 44.3144 50.5094C40.431 49.0298 37.6852 50.5662 36.9493 50.3199C36.7108 50.2409 35.8588 49.6977 35.6454 49.554L34.3902 48.6603C34.0764 48.4408 33.5931 47.8865 33.2919 47.6054C32.0043 46.3953 30.8414 45.0573 29.8212 43.6118L28.4765 41.6695C26.0868 37.8544 27.1899 40.0115 28.4953 35.9942C29.1433 34.0014 29.2155 31.5822 28.533 29.512C28.431 29.1961 28.3133 28.9703 28.2976 28.6008C28.4184 28.1918 29.829 26.8243 30.3374 26.4201L31.0936 25.749C32.1742 24.9079 33.2987 24.1257 34.4624 23.4056C35.09 23.0045 36.1632 22.5828 37.0058 22.1533C37.4223 21.9288 37.855 21.7362 38.3002 21.5769C39.5994 21.119 40.0685 20.3816 41.0665 20.999C43.0905 22.2512 46.8327 22.7155 49.0168 22.1344C51.2432 21.5406 52.2772 21.2817 54.1444 19.6883C55.8703 18.2119 57.2432 15.7406 56.7176 13.1287C56.4462 11.7802 55.4012 11.6128 57.9854 9.59467C59.077 8.76098 60.2663 8.06568 61.5267 7.52445L62.5576 7.11231C62.8714 6.9544 62.6925 7.0902 62.8714 6.88334C63.7061 6.89439 64.3604 6.15852 65.3395 6.61962C69.4064 8.52719 71.5481 8.27295 72.284 8.59509C74.01 9.34675 77.5999 12.6281 78.841 13.8977C79.2584 14.3257 81.5382 16.4243 81.3907 17.1286C80.9796 19.0804 81.2762 20.3847 81.8897 22.1233C82.8823 24.8718 84.6753 27.2552 87.0346 28.9624C89.8682 31.0453 94.0293 31.4653 92.6941 26.1343C91.875 22.8702 87.5963 17.2597 84.8897 16.028C84.5382 15.8681 84.1673 15.7556 83.7866 15.6932C82.4906 15.5084 83.1857 16.0343 80.9498 14.0383L74.9404 8.08978C74.9294 7.52761 75.2448 7.08072 74.2469 6.20906C72.364 4.56678 67.0764 2.76344 64.5973 1.85703C58.9143 -0.219498 59.9373 2.91819 61.1815 3.69196C61.4122 4.26675 61.5534 3.90987 61.7087 4.48151C61.1046 5.29633 58.5879 6.22643 57.3954 6.63226C56.6391 6.88965 52.7934 8.07714 52.2176 7.97134C51.2118 7.78501 49.9048 6.80596 46.6789 7.00809C44.8913 7.12858 43.1478 7.61941 41.5576 8.44981C39.9995 9.22989 39.0251 10.1063 38.1276 11.4801C36.1899 14.4457 37.6224 15.799 36.9462 16.8491L35.534 18.6193C35.1433 19.0188 34.5926 19.3583 33.783 20.1415C33.182 20.7195 32.5623 21.1064 31.9802 21.6101C31.398 22.1138 30.5806 22.5686 30.0753 22.9745L26.1025 25.4789C25.522 25.7174 25.4184 25.4 24.9038 25.1631C24.5296 24.9761 24.1374 24.8279 23.7333 24.721C15.7657 22.9113 8.98434 33.8577 12.8928 40.5373C14.7757 43.7366 18.3389 44.9588 21.8614 43.3797C23.7631 42.5207 23.4885 41.8511 25.7668 44.3272C28.1203 46.8774 29.3065 49.3061 30.7877 52.3206C32.3081 55.4267 31.7291 54.0371 30.7657 56.8527C28.1972 64.325 34.0529 71.2763 40.9739 71.5163C46.3337 71.701 50.7913 67.698 51.6088 62.6022C52.1878 59.0066 50.7302 58.2028 51.5429 56.8148C53.7584 53.036 57.7798 49.5825 61.4953 47.2138C61.8013 47.018 62.2155 46.7195 62.5058 46.5821C63.3154 46.1937 63.9399 47.5849 66.0361 47.8454C67.8766 48.7171 71.4587 48.1218 73.4577 46.9296C77.8729 44.2924 79.1956 38.4608 76.9613 33.8687C76.1768 32.2707 74.0272 29.392 72.568 28.9846L72.5743 28.9798ZM70.205 18.8735L70.1705 18.8577H70.158L69.6716 18.6256L69.5963 18.6003H69.5884L69.4315 18.5514C69.3531 18.5261 69.2746 18.4993 69.1695 18.4582C68.2771 18.0969 67.5247 17.4549 67.0246 16.628C66.7108 16.1117 66.4158 15.27 66.67 14.5325C66.9634 13.6814 67.5063 13.574 67.9378 13.225C67.9614 13.2069 67.9834 13.1868 68.0037 13.165C69.0879 13.2598 69.4927 13.1034 70.1737 13.3229C70.4649 13.4201 70.7452 13.5476 71.01 13.7035C72.4503 14.5136 73.9802 16.4464 72.794 18.0097C72.0534 18.9872 71.4273 18.6666 70.216 18.8735H70.205ZM40.9095 80.2188C42.2118 80.623 43.7071 82.4721 43.1062 84.127C42.5461 85.6762 40.5957 86.4436 38.6643 85.8183L38.5623 85.7851C37.2568 85.343 35.4336 83.8223 36.0032 81.9431C36.3844 80.6798 37.5895 79.9756 38.8776 79.8903C39.5678 79.8535 40.258 79.9611 40.9048 80.2061L40.9095 80.2188ZM95.0837 63.8181C95.0727 60.6457 96.59 52.4296 99.3484 52.507C100.105 53.7055 99.3719 56.4358 99.2589 57.9391C98.8714 57.7638 99.102 57.6817 98.7051 57.5396C97.7872 58.1065 96.8881 61.7953 97.5706 62.9986C98.1496 62.9465 97.6585 63.0317 97.9519 62.8407L98.2359 62.6227C98.1135 63.5592 97.7275 64.5935 97.4702 65.4478C96.9728 67.0916 97.1078 66.9479 96.306 67.7469C95.7913 67.6759 96.0659 67.6648 95.6454 67.4753C94.8719 68.0849 90.4676 74.684 89.9969 75.4719C88.6193 77.7696 89.4305 76.9626 88.7526 78.736C87.5366 81.9131 83.2061 86.6552 79.6444 87.6643C78.761 87.9138 78.4833 87.7764 77.578 87.7843C77.09 87.7843 76.4922 88.2864 76.0623 88.558C73.9127 89.9082 69.7971 92.6811 68.2077 94.2081C67.2898 95.0876 67.7966 94.4228 67.4231 95.6609C67.249 96.242 66.7751 96.5783 66.3609 96.8626C63.5366 98.8001 59.2422 99.915 55.8578 99.915C54.1946 99.915 52.1282 99.7571 51.386 98.8096C50.4273 97.5763 52.1705 95.7998 52.8703 95.3119C55.442 93.5101 57.5649 92.9843 61.0701 92.6653C61.963 92.5918 62.8611 92.6172 63.7485 92.7411C64.7715 92.8769 64.8468 93.2338 65.7741 92.7853C67.0638 92.1537 68.239 91.5947 69.3672 90.9646C70.5153 90.3296 71.6268 89.63 72.6967 88.8691C73.3949 88.3622 75.1915 86.99 75.579 86.3031C75.6057 86.1609 74.9953 84.855 75.3374 83.3217C75.9399 80.6262 76.8939 78.7012 78.8614 76.7037C80.567 74.9666 84.2291 72.4937 87.0565 73.2786C88.5251 73.686 87.6449 74.2813 89.3379 72.7764C89.716 72.4401 89.9655 72.1969 90.386 71.7721C91.7009 70.4599 93.1648 68.7355 94.1517 67.1374C95.363 65.173 95.0931 65.5741 95.0821 63.8213L95.0837 63.8181ZM91.9723 53.396C91.0309 52.788 90.3374 51.9069 88.4012 51.9258C84.659 51.9622 81.7908 55.6146 80.6376 59.1898C79.9911 61.1921 79.7432 63.7313 80.2955 65.8378C80.4791 66.5358 80.9231 67.03 80.4807 67.6601C78.1036 71.0757 74.4587 73.5249 70.7887 75.5556C69.7014 76.1589 70.0136 76.042 68.9734 75.5746C62.818 72.7969 53.9985 77.629 53.818 84.0402C53.7945 84.8771 53.818 85.5846 54.0863 86.3331C54.1863 86.6344 54.3037 86.9297 54.4378 87.2174C54.5947 87.5332 54.8112 87.7432 54.9085 88.0464C54.6276 88.7349 52.7464 89.9903 51.9352 90.4624C50.727 91.1651 45.0926 93.7486 44.0115 93.3901C42.3248 92.8279 42.1695 92.4695 39.6904 92.19C38.8281 92.0697 37.9578 92.0169 37.0874 92.0321C35.8321 92.07 35.8321 91.9531 34.9221 91.4446C33.7682 90.7938 32.6735 90.0418 31.6507 89.1976C30.7579 88.4822 26.2061 84.3623 26.1826 83.6265C26.1684 83.197 27.5837 81.8089 26.6611 78.278C24.1193 68.5333 10.4545 65.4478 11.4979 75.3235C11.8871 78.9997 14.1935 79.4292 13.0811 81.0257C12.8119 81.4537 12.3922 81.7638 11.9059 81.8942L11.5921 81.9921C11.5664 82.0011 11.5412 82.0116 11.5168 82.0237L11.443 82.06C11.4169 82.0701 11.3922 82.0833 11.3693 82.0995C11.6031 82.5479 13.0842 84.2139 13.4247 84.4981C13.7103 84.3939 14.738 83.2491 15.9791 83.178C16.8766 83.1275 19.1172 86.0567 23.1182 85.583C24.0691 85.4693 23.8117 85.3572 24.5476 85.8988C27.1271 87.7779 28.4326 89.237 30.51 91.3957C30.8238 91.7115 32.148 93.2053 32.2971 93.4991C31.8813 94.3644 31.3039 94.9313 32.1684 95.9877C33.4394 97.5384 37.1548 98.8854 39.0973 99.3844C41.1559 99.9134 43.1768 99.9687 45.3531 99.7144C46.5047 99.5802 48.3593 99.048 48.3625 97.6047C48.3625 96.8736 48.0393 96.771 47.9686 96.1172C48.6967 95.5787 48.7532 95.3119 50.1214 94.4023C51.3546 93.5859 56.5544 90.6267 57.7453 90.3851C58.023 90.3282 58.8028 90.644 59.2045 90.7419C65.1323 92.1758 72.9901 87.2932 73.0277 81.4868C73.0372 80.0166 72.3892 80.2503 74.7804 77.5311C76.6011 75.4625 78.5903 73.5504 80.727 71.8147C83.9482 69.2566 82.2302 70.193 84.6496 70.7883C89.3034 71.93 93.965 65.4715 93.965 59.2087C93.965 57.2143 94.2317 56.9316 94.8954 55.3778C95.3269 54.364 97.7197 49.6519 98.3944 49.2982C98.7176 49.5224 99.1664 50.6641 99.6575 50.3199C100.067 49.8856 99.6873 46.4542 99.6449 45.7168C99.5021 45.322 98.9373 46.0705 98.4838 43.1255C98.3988 42.5706 98.3464 42.0111 98.3269 41.45C98.2736 39.6577 98.727 40.441 98.807 40.0115C98.6344 38.9851 98.0021 36.2106 97.6114 35.4652C96.6998 35.3926 96.5461 36.3353 96.4378 37.4438C96.2605 39.2519 96.4629 41.6411 96.7516 43.4445C96.8677 44.1866 97.2537 45.4689 97.3023 46.0831C97.4592 48.0428 93.3421 53.0454 91.9754 53.3897L91.9723 53.396Z" fill="url(#paint0_radial)"/>
<path d="M170.241 14.2325L148.779 65.8694C148.153 67.399 147.396 68.8714 146.518 70.2703C145.792 71.4343 144.962 72.5289 144.038 73.5407C143.348 74.3111 142.574 74.9998 141.73 75.5935C141.016 76.0715 140.403 76.3104 139.891 76.3104H138.949C138.436 76.3104 137.808 76.0378 137.066 75.4925C136.211 74.8373 135.436 74.0819 134.758 73.2422C133.888 72.1918 133.088 71.084 132.364 69.9261C131.556 68.6475 130.869 67.2957 130.312 65.8883L108.85 14.2515H118.941L139.549 63.3223L160.155 14.2325H170.241Z" fill="#9AB0C9"/>
<path d="M182.385 14.2325H191.109V76.1999H182.385V14.2325Z" fill="#9AB0C9"/>
<path d="M247.793 24.5599L274.467 76.1967H203.247L229.837 24.5599C231.548 21.2195 233.201 18.663 234.797 16.8901C236.393 15.1173 237.448 14.2315 237.96 14.2325H239.67C240.013 14.2325 240.411 14.3699 240.868 14.6415C241.324 14.9131 241.864 15.4437 242.492 16.2206C243.119 16.9975 243.874 18.0603 244.757 19.3899C245.641 20.7195 246.653 22.4486 247.793 24.5599ZM259.079 65.9736L238.902 27.1165H238.731L218.467 65.9736H259.079Z" fill="#9AB0C9"/>
<path d="M333.981 29.8767V24.5599H311.664C304.425 24.5599 299.152 26.3153 295.847 29.8262C292.541 33.3371 290.888 38.535 290.887 45.4199C290.887 52.3743 292.526 57.5217 295.803 60.862C299.08 64.2024 304.339 65.8725 311.58 65.8725H342.617V76.1999H311.236C306.162 76.1999 301.801 75.6378 298.153 74.5134C294.506 73.3891 291.499 71.5994 289.133 69.1445C286.767 66.6905 285.014 63.5207 283.875 59.6351C282.736 55.7494 282.166 51.0452 282.165 45.5226C282.165 34.8215 284.518 26.9307 289.225 21.8501C293.933 16.7696 301.3 14.2304 311.328 14.2325H342.623V29.8767H333.981Z" fill="#0E416C"/>
<path d="M399.304 24.5599L425.978 76.1967H354.759L381.35 24.5599C383.06 21.2195 384.713 18.663 386.31 16.8901C387.906 15.1173 388.96 14.2315 389.473 14.2325H391.183C391.525 14.2325 391.924 14.3699 392.38 14.6415C392.837 14.9131 393.377 15.4437 394.004 16.2206C394.632 16.9975 395.387 18.0603 396.27 19.3899C397.153 20.7195 398.164 22.4486 399.304 24.5599ZM410.591 65.9736L390.413 27.1165H390.242L369.979 65.9736H410.591Z" fill="#0E416C"/>
<path d="M446.843 32.3323C446.843 37.5138 448.753 40.1041 452.572 40.1031H453.341V50.3294C443.194 50.3294 438.121 45.3867 438.121 35.5015V29.4677C438.121 19.3109 443.137 14.2325 453.168 14.2325H498.57V24.5599H452.572C448.753 24.5599 446.843 27.1507 446.843 32.3323ZM489.854 58.1002C489.854 52.9207 487.944 50.3304 484.125 50.3294H483.356V40.1094C488.371 40.1094 492.161 41.3026 494.727 43.6892C497.293 46.0758 498.575 49.8251 498.574 54.9372V60.9694C498.574 66.0826 497.378 69.9003 494.984 72.4227C492.591 74.945 488.8 76.2083 483.612 76.2125H438.122V65.8852H484.122C487.943 65.8767 489.854 63.2817 489.854 58.1002Z" fill="#0E416C"/>
<path d="M573.64 14.2325V24.5599H547.735V76.1968H539.105V24.5599H513.193V14.2325H573.64Z" fill="#0E416C"/>
</g>
<defs>
<radialGradient id="paint0_radial" cx="0" cy="0" r="1" gradientUnits="userSpaceOnUse" gradientTransform="translate(39.9415 34.8218) scale(49.9252 49.7432)">
<stop stop-color="#9AB0C9"/>
<stop offset="1" stop-color="#0E416C"/>
</radialGradient>
<clipPath id="clip0">
<rect width="576" height="108" fill="white"/>
</clipPath>
</defs>
</svg>
