<svg xmlns="http://www.w3.org/2000/svg" xmlns:xlink="http://www.w3.org/1999/xlink" viewBox="0 0 3671.04 683.93"><defs><style>.cls-1{fill-rule:evenodd;fill:url(#Gradiente_sem_nome_36);}.cls-2,.cls-3,.cls-6{isolation:isolate;}.cls-3,.cls-6{font-size:145px;font-family:Calibri-Bold, Calibri;font-weight:700;}.cls-3{fill:#9cb3cb;letter-spacing:0.03em;}.cls-4{letter-spacing:0.02em;}.cls-5{letter-spacing:0.02em;}.cls-6{fill:#0c4978;letter-spacing:0.04em;}.cls-7{fill:#9ab0c9;}.cls-8{fill:#0e416c;}</style><radialGradient id="Gradiente_sem_nome_36" cx="254.56" cy="221.47" r="318.19" gradientTransform="translate(0 1.26) scale(1 0.99)" gradientUnits="userSpaceOnUse"><stop offset="0" stop-color="#9ab0c9"/><stop offset="1" stop-color="#0e416c"/></radialGradient></defs><g id="Camada_2" data-name="Camada 2"><g id="Camada_1-2" data-name="Camada 1"><path class="cls-1" d="M441.47,261.46a30.93,30.93,0,0,1-12.06-1.29c-21.44-6.69-24.51-37.07-3.84-45.61a19.34,19.34,0,0,1,14-.73c4.07,1.27,7.19,3.55,9.79,4.46,2.67,3.71,5.06,4.57,7.6,10.18a24.05,24.05,0,0,1,2.05,15.6,22.63,22.63,0,0,1-17.58,17.39ZM242.33,605.39c-21.78,4.49,5.67,21.11,23.08,17.87,12.75-2.38,7.23-9.88.34-13.81-5.67-3.23-15.95-5.6-23.42-4.06ZM276.8,198.23c-1.55.69-2.59.56-4.48,1.54-9.46,4.9-16.53,17.56-12.61,29.75,3.51,10.94,16.76,21.1,31.8,16,20.52-7,25-33.67,6.28-44.82-5.18-3.08-14.32-5.37-21-2.43ZM253.68,361c-12.09,2.79-22.81,15-18.74,30.05,3,11.16,15.22,22.17,30,19,12.25-2.59,22.75-15,18.79-30.35-2.8-10.86-15.13-22.19-30.08-18.74Zm165.67,7c-30.87,8.1-23.27,53,9.21,46.43,10.64-2.15,20.58-14.32,18.82-27.93-1.48-11.47-13.58-22.3-28-18.5ZM106.17,338.3c-26.25,7.61-12.68,52.1,11.21,45.3,26-7.4,12.83-52.27-11.21-45.3ZM124.7,193.05c-26.08,6.09-24.14,49,2.63,43.53,9.9-2.05,17.22-13.06,18.26-23.13,1.27-12.33-8.22-23.35-20.89-20.4ZM294.85,70.58c-10.76,2.27-21.41,8.18-19.1,21.35,1.8,10.26,14.82,15.63,27.32,13.8,9.37-1.38,21.31-10.17,18.12-22-2.51-9.37-15.59-15.39-26.34-13.11ZM405.46,510.86c-31.16,6.22-28,40.91.31,36.83,9.09-1.31,20.26-9.07,22-19,2.26-12.92-10.77-20.11-22.31-17.81Zm152.1-141.11c-23.85,11.15-15.36,48.82,3.37,41.08,22.41-9.25,16.32-50.28-3.37-41.08ZM107.23,475.28c-11.11,3.6-8,17-2.62,24.53,18,25.36,42.23,9.6,27-12.63-4.18-6.08-14.23-15.17-24.33-11.9Zm458.3-236.13c-19,8.53-4,48.83,13.24,41.28s3.64-48.85-13.24-41.28ZM164.9,68c-25.29,4.46-36.49,34.19-12.68,31.11C161,98,169.56,91.51,173.4,85.82c5.77-8.54,3.79-19.95-8.5-17.78ZM532.57,496.87c-23.45,7.9-28.11,39.14-9.18,32.44,9.41-3.32,23.05-18,20.34-27.9-1.3-4.71-6.31-6.17-11.16-4.54ZM13.16,323.43C1.85,330.6,8.58,367.82,20.47,362c5.55-2.7,6.54-16,5.25-23.34-.95-5.5-5.89-19.49-12.56-15.26ZM548.41,126.58c-12,4.48,8.82,36.93,20.81,33.2s-8.4-37.81-20.81-33.2Zm-515,70.14c-12.38,5.84-20.22,42.06-5.91,36.51,13.85-5.37,19.17-42.77,5.91-36.51ZM359.67,620.84c9.25,9.47,41.59-1.17,37.76-9.42-3.31-7.11-22.52-4.75-31.8.79-3.43,2-6,3.84-6,8.63ZM415.6,18.58c-6.05,6.28,27.3,19.84,32.53,14.83,6.1-5.84-27.71-19.83-32.53-14.83Zm135.26,81.68c-.67-3.59-24.42-24.32-28.5-27.57-6.17-4.9-26.56-22.11-33.12-24.31,4.72,9.84,33,33.38,44.39,41l17.23,10.86ZM159,41.43c12.56-.62,46.92-13.54,59.38-20.76l11.91-7.55c.54-.41,1.34-.91,1.87-1.38,2-1.78.92-.39,2-2.54-12.45,1.28-46,15.8-58.33,22.21-3.37,1.76-15.61,7.37-16.78,10ZM46.57,151.9C65.3,144.13,96.58,104.57,101,85,92.22,88.16,65,124.22,58.24,133c-1.81,2.36-11,15.93-11.67,18.88Zm315.22,17.48c14.44-10.38,17.43-11.65,33-19.54,4.6-2.19,8.29-3.88,12.87-5.6,6-2.26,7.36-4.93,13.19-1.25,7.09,4.49,19.17,9.64,28.19,10.21,4.83.64,21.44-.66,23.15.24,4.09,2.12,10.89,7.75,14.49,10.86,8.47,7.31,16.16,15.91,24.36,26.35,2.38,3,19.62,26.54,20.25,30.38.27,1.63-2.24,6.6-3,8.88a77.91,77.91,0,0,0-2.51,10.32c-1.89,10.45-.6,23.9,2.25,34.16,2.8,10.07,7.91,9.74-6.45,24.86-13.87,14.59-34.27,26.48-53.35,35.07-5,2.25-5.14.1-8.88-2.27-36.56-23.17-83.23-3.31-98.05,35.1-6.4,16.56-7.27,35.49-.16,52.67,3.11,7.52,7.41,6.09-9.32,22.37-8.87,8.63-18.52,14.67-29.5,21.19-5,2.95-29.85,15.76-34.19,16.45-1.88.3-5.87-2.64-8.06-3.64-9.86-4.48-19-7.26-30.63-7.63-20.54-.66-17.29,7-34.61-6.47-1.86-1.45-2-1.92-3.82-2.36-1-1.74-8.5-8-10.19-9.63a212.73,212.73,0,0,1-27.4-31.73C160,399.52,160.69,402,164.34,393.92c16.94-37.61-4.53-93.24-48.5-98-17.93-1.94-29.27,8.31-30.91,8.22-7.53-2.8-17.64-21.75-21.46-30a234.54,234.54,0,0,1-9.86-28.46c-1.66-6.47-1-5.25-.25-10.66l1.8-2.39c4.74-9.6,8.78-27.06,9-37.81.16-7.75.26-7.15,4.18-13.35,14.86-23.49,30.21-35.72,49.49-52.62,5.8-5.08,9.4,4.36,28.84.86,25.18-4.53,48.19-19,60.25-41.86a49.33,49.33,0,0,0,4.41-12.28c2.84-13.89-8-12.61,20.09-31.44a216.57,216.57,0,0,1,21.81-12.58c3.69-1.88,20.09-10,24.14-9.83,8.3.34,11.44,3.19,31.87,3.06C323.37,24.69,360.7,20.17,358,5,354.79.21,350.27.23,343,.28c-5.39,0-14.49-.52-19.4.4C337,9.61,289.38,13.59,289.24,4.3c.69-2.11,2.19-3,4.71-3.47-6.25-1.3-25.26-1.39-31,2.06-3.36,2-7.17,3.69-5.29,8.1,1.17,2.75,1.92.93,3,4.37-5.13,6.42-48.88,25.26-60.58,29.83-8.5,3.32-15.8-3.58-37.91,6.35a117.68,117.68,0,0,0-28,17.63c-8.13,6.91-15.63,14.7-20.78,24.67a31.37,31.37,0,0,0-3.19,18.6c.66,4.93-4.2,8.63-8.66,13.82-14.1,16.43-26.63,25.31-41.11,38.21-3.46,3.09-2.83,2.9-7.8,1.65-7.88-4.63-20,10.5-23.62,18.28-6.87,14.74-21.45,50.93-20,66.88,2.49,27.27,21.77,12.23,23.25,12.36,8.26.7,28.8,41.44,34.25,54.94,3.34,8.28,2.29,5.59-.39,13.3-3.06,8.78-4.32,22.5-2.87,32.89,4.65,33.48,32.93,65.84,65.5,59.12,16.26-3.35,9.91-11,27.73,6.87,2.16,2.17,4.25,4.64,6.18,6.79a45.18,45.18,0,0,1,3,3.54c1.86,2.44,1.32,2.33,3.38,3.47.35,1.73,28.81,41.37,28.48,46.7-1.72,4.07-4,5.89-4.78,11.05-3.8,4.49-2.32,20.39.85,28.6,9.21,23.83,37.51,41.42,63.63,42.78,30.6,1.59,60-16.87,59.73-46-.06-6.72-1.27-9.28-2.78-14.79-1.44-5.26,4.18-7.75,5.11-11.86,1.76-1.05,4.72-4.88,6.85-7.16,14.24-15.24,36-31.81,53.75-41.85,4.17-2.37,4.71-4,9.17-1.59,10.23,5.63,22,7.52,34,6.84,26.8-1.51,51.61-23.09,60.52-49,6.63-19.28,2.74-25.48,2.58-36-.14-8.75,25.37-34.53,29.81-39,7-7,22.65-19.67,31.22-24.26l2.38.71c1.71,4.45,24.78,19.54,43.76,3.38,10.48-8.92,15.73-28.17,14.81-46.81-1-20.4-13.74-48.45-32-60.17-5.68-3.65-17.78-7.35-24.06-3.05-5.82,1-4,5-11.62-2.87-20.71-21.38-27.3-34.83-42.59-60.18-5.1-8.46,2.88-3.66,1.93-22.6C498.33,87.63,453.14,49.25,412,59.16c-19.69,4.35-30,22.83-24.8,41.41.79,2.88,2.43,6.67,2.87,8.82.79,3.84-2.07,4.85-2.55,7.89l-2.19,2.15c-8.83,10.93-13.91,15.29-25.08,24.27-2.36,1.9-9,6.15-10,7.49l-22.1,13c-6.94,3.67-5.37,3-12.08-.3-21.36-10.64-49.35-8-68.36,5.72-2.4,1.74-2.64,1.51-4.81,3.68-1.9,1.91-5.4,3.32-8.93,7.95-.93,1.22-.9,1.5-1.86,2.7-5.86,7.28-2.64,2.87-7.16,10.44-3.56,5.95-4.17,7.67-6.35,15.65a60,60,0,0,0-.06,30.73c2.68,10.25,10.38,26.54,19.69,32.41,1.88,1.19,2.72,3.35,9.72,7.66,8.26,5.08,15.43,7.17,25.8,9.38,9.91,2.11,23.92-.18,31.9-2.78,10.13-3.32,14.49-6.19,22.82-12.29,11.2-8.19,23.47-26.35,25.1-44.57,2.62-29.19-9.35-37.86-8.32-42.68.68-3.18,13.46-16.24,16.6-18.5ZM20.57,412.58c27.06,8.81,53.75,90.7,37.85,87.8-2.34-.43-11.6-16.17-13.88-20-5.25-8.86-.14-5-2.26-13.48a56,56,0,0,0-4.68-12.09,42.37,42.37,0,0,0-6.83-10.14c-2.18-2.27-2.6-1.85-4.95-3.43-1.9-1.27-1.7-1.85-3.11-5.43-5.06-12.83-8.58-18.19-2.14-23.2Zm88.13,144c3.9-1.46,7.61-4,11.74-6.39,2.56-1.51,3.07-2.49,5.9-1.51a123,123,0,0,1,28.74,14.8c8.26,5.84,32.79,25.81,29.51,39.93-4.35,2.09-5.73,1.77-9.74-.43-4.86-2.66-19.61-10.23-22.77-13l3.57-1.16c.55-8-19.88-21.92-30.13-21l-.93,3.25c-2.46-1.71-5.3-4.14-8.17-6.52-4.93-4.1-7-4.66-7.72-7.92Zm332.6,55c1-8.61,14.69-19.72,20.11-24,12.66-9.95,33.21-21,49.42-25.53,2.57-.72,7.05-1.1,8.65-1.66,5.4-1.9,37.27-33,43.94-41.16,6.11-7.48,4.22-6.05,7.43-14.11a224.05,224.05,0,0,1,21.32-41.66c3.26-5.14,14.26-20.49,19.41-23-1.31,5.38-11.43,25.49-14,29.09-5.52,7.85-10,17.4-15.74,26.51-17.57,27.7-37.1,46.11-60.72,67.38-3.47,3.11-8.55,6.83-12,9.44-8.66,6.6-6.85,6.45-13.31,7.32s-23.92,12.48-26.13,16.29c-2.49,4.29-1.38,2.74-6,5.14-5.37,2.81-17.41,9.34-22.44,9.9ZM15,288.52c9.53-4,19.73,9.41,22.92,15.12C52,329,53,383.12,32.07,394.89a13.29,13.29,0,0,1-15.58-1.66,29.28,29.28,0,0,1-4.68-5.06c-4.36-6.32-2.41-.85-4.52-3.92-1.35-2-5.26-29.64-5.5-33.42C.47,330.34-2.89,317.55,5.5,298.6c2.22-5,4.93-8.16,9.45-10.08Zm447.54-105L444.63,175c-21.78-6.17-43.46.68-58.32,15.57C371,206,365.6,229.77,370.8,250.86a83.33,83.33,0,0,0,3.19,9.93c3.88,10.21,8.75,7.4-7.53,24.38A137.19,137.19,0,0,1,352,298c-10.77,8.37-28.4,18.81-42,25-18.29,8.4-4.9,5.44-27.57-3.14-24.75-9.37-42.25.36-46.94-1.2-1.52-.5-6.95-3.94-8.31-4.85l-8-5.66c-2-1.39-5.08-4.9-7-6.68a166.67,166.67,0,0,1-22.12-25.29l-8.57-12.3c-15.23-24.16-8.2-10.5.12-35.94,4.13-12.62,4.59-27.94.24-41.05-.65-2-1.4-3.43-1.5-5.77.77-2.59,9.76-11.25,13-13.81l4.82-4.25a244.11,244.11,0,0,1,21.47-14.84c4-2.54,10.84-5.21,16.21-7.93a60.1,60.1,0,0,1,8.25-3.65c8.28-2.9,11.27-7.57,17.63-3.66,12.9,7.93,36.75,10.87,50.67,7.19,14.19-3.76,20.78-5.4,32.68-15.49,11-9.35,19.75-25,16.4-41.54-1.73-8.54-8.39-9.6,8.08-22.38a106.43,106.43,0,0,1,22.57-13.11l6.57-2.61c2-1,.86-.14,2-1.45,5.32.07,9.49-4.59,15.73-1.67C442.35,54,456,52.39,460.69,54.43c11,4.76,33.88,25.54,41.79,33.58,2.66,2.71,17.19,16,16.25,20.46-2.62,12.36-.73,20.62,3.18,31.63a92.09,92.09,0,0,0,32.79,43.31c18.06,13.19,44.58,15.85,36.07-17.91-5.22-20.67-32.49-56.2-49.74-64A28,28,0,0,0,534,99.38c-8.26-1.17-3.83,2.16-18.08-10.48l-38.3-37.67c-.07-3.56,1.94-6.39-4.42-11.91-12-10.4-45.7-21.82-61.5-27.56C375.48-1.39,382,18.48,389.93,23.38c1.47,3.64,2.37,1.38,3.36,5C389.44,33.54,373.4,39.43,365.8,42c-4.82,1.63-29.33,9.15-33,8.48-6.41-1.18-14.74-7.38-35.3-6.1a82.9,82.9,0,0,0-32.64,9.13C254.93,58.45,248.72,64,243,72.7c-12.35,18.78-3.22,27.35-7.53,34l-9,11.21c-2.49,2.53-6,4.68-11.16,9.64-3.83,3.66-7.78,6.11-11.49,9.3s-8.92,6.07-12.14,8.64l-25.32,15.86c-3.7,1.51-4.36-.5-7.64-2a39.16,39.16,0,0,0-7.46-2.8c-50.78-11.46-94,57.86-69.09,100.16,12,20.26,34.71,28,57.16,18,12.12-5.44,10.37-9.68,24.89,6,15,16.15,22.56,31.53,32,50.62,9.69,19.67,6,10.87-.14,28.7-16.37,47.32,20.95,91.34,65.06,92.86,34.16,1.17,62.57-24.18,67.78-56.45,3.69-22.77-5.6-27.86-.42-36.65,14.12-23.93,39.75-45.8,63.43-60.8,1.95-1.24,4.59-3.13,6.44-4,5.16-2.46,9.14,6.35,22.5,8,11.73,5.52,34.56,1.75,47.3-5.8,28.14-16.7,36.57-53.63,22.33-82.71-5-10.12-18.7-28.35-28-30.93Zm-15.1-64-.22-.1h-.08l-3.1-1.47-.48-.16h0l-.05,0h0l-1-.31,0,0h0c-.5-.16-1-.33-1.67-.59a28.42,28.42,0,0,1-13.67-11.59c-2-3.27-3.88-8.6-2.26-13.27,1.87-5.39,5.33-6.07,8.08-8.28a3.43,3.43,0,0,0,.42-.38c6.91.6,9.49-.39,13.83,1a28,28,0,0,1,5.33,2.41c9.18,5.13,18.93,17.37,11.37,27.27-4.72,6.19-8.71,4.16-16.43,5.47ZM260.73,508c8.3,2.56,17.83,14.27,14,24.75-3.57,9.81-16,14.67-28.31,10.71l-.65-.21c-8.32-2.8-19.94-12.43-16.31-24.33,2.43-8,10.11-12.46,18.32-13a31.89,31.89,0,0,1,12.92,2ZM606,404.14c-.07-20.09,9.6-72.12,27.18-71.63,4.82,7.59.15,24.88-.57,34.4-2.47-1.11-1-1.63-3.53-2.53-5.85,3.59-11.58,26.95-7.23,34.57,3.69-.33.56.21,2.43-1l1.81-1.38c-.78,5.93-3.24,12.48-4.88,17.89-3.17,10.41-2.31,9.5-7.42,14.56-3.28-.45-1.53-.52-4.21-1.72-4.93,3.86-33,45.65-36,50.64-8.78,14.55-3.61,9.44-7.93,20.67-7.75,20.12-35.35,50.15-58.05,56.54-5.63,1.58-7.4.71-13.17.76-3.11,0-6.92,3.18-9.66,4.9-13.7,8.55-39.93,26.11-50.06,35.78-5.85,5.57-2.62,1.36-5,9.2-1.11,3.68-4.13,5.81-6.77,7.61-18,12.27-45.37,19.33-66.94,19.33-10.6,0-23.77-1-28.5-7-6.11-7.81,5-19.06,9.46-22.15,16.39-11.41,29.92-14.74,52.26-16.76a78,78,0,0,1,17.07.48c6.52.86,7,3.12,12.91.28,8.22-4,15.71-7.54,22.9-11.53a222.21,222.21,0,0,0,21.22-13.27c4.45-3.21,15.9-11.9,18.37-16.25.17-.9-3.72-9.17-1.54-18.88,3.84-17.07,9.92-29.26,22.46-41.91,10.87-11,34.21-26.66,52.23-21.69,9.36,2.58,3.75,6.35,14.54-3.18,2.41-2.13,4-3.67,6.68-6.36,8.38-8.31,17.71-19.23,24-29.35,7.72-12.44,6-9.9,5.93-21Zm-19.83-66c-6-3.85-10.42-9.43-22.76-9.31-23.85.23-42.13,23.36-49.48,46-4.12,12.68-5.7,28.76-2.18,42.1,1.17,4.42,4,7.55,1.18,11.54-15.15,21.63-38.38,37.14-61.77,50-6.93,3.82-4.94,3.08-11.57.12C400.36,461,344.15,491.6,343,532.2c-.15,5.3,0,9.78,1.71,14.52a51.86,51.86,0,0,0,2.24,5.6c1,2,2.38,3.33,3,5.25-1.79,4.36-13.78,12.31-18.95,15.3-7.7,4.45-43.61,20.81-50.5,18.54-10.75-3.56-11.74-5.83-27.54-7.6a107.32,107.32,0,0,0-16.59-1c-8,.24-8-.5-13.8-3.72a143.54,143.54,0,0,1-20.85-14.23c-5.69-4.53-34.7-30.62-34.85-35.28-.09-2.72,8.93-11.51,3.05-33.87C153.72,434,66.63,414.46,73.28,477c2.48,23.28,17.18,26,10.09,36.11a12.75,12.75,0,0,1-7.49,5.5l-2,.62a4.34,4.34,0,0,0-.48.2l-.47.23a2.17,2.17,0,0,0-.47.25c1.49,2.84,10.93,13.39,13.1,15.19,1.82-.66,8.37-7.91,16.28-8.36,5.72-.32,20,18.23,45.5,15.23,6.06-.72,4.42-1.43,9.11,2,16.44,11.9,24.76,21.14,38,34.81,2,2,10.44,11.46,11.39,13.32-2.65,5.48-6.33,9.07-.82,15.76,8.1,9.82,31.78,18.35,44.16,21.51,13.12,3.35,26,3.7,39.87,2.09,7.34-.85,19.16-4.22,19.18-13.36,0-4.63-2.06-5.28-2.51-9.42,4.64-3.41,5-5.1,13.72-10.86,7.86-5.17,41-23.91,48.59-25.44,1.77-.36,6.74,1.64,9.3,2.26,37.78,9.08,87.86-21.84,88.1-58.61.06-9.31-4.07-7.83,11.17-25.05a314.59,314.59,0,0,1,37.9-36.2c20.53-16.2,9.58-10.27,25-6.5,29.66,7.23,59.37-33.67,59.37-73.33,0-12.63,1.7-14.42,5.93-24.26,2.75-6.42,18-36.26,22.3-38.5,2.06,1.42,4.92,8.65,8.05,6.47,2.61-2.75.19-24.48-.08-29.15-.91-2.5-4.51,2.24-7.4-16.41a90.43,90.43,0,0,1-1-10.61c-.34-11.35,2.55-6.39,3.06-9.11-1.1-6.5-5.13-24.07-7.62-28.79-5.81-.46-6.79,5.51-7.48,12.53-1.13,11.45.16,26.58,2,38,.74,4.7,3.2,12.82,3.51,16.71C621.14,304.24,594.9,335.92,586.19,338.1Z"/><g class="cls-2"><text class="cls-3" transform="translate(2020.94 633.31) scale(1.01 1)">TRUE VID<tspan class="cls-4" x="608" y="0">E</tspan><tspan class="cls-5" x="681.32" y="0">O</tspan><tspan x="782.33" y="0">.</tspan></text><text class="cls-2"/><text class="cls-6" transform="translate(2874.03 631.66) scale(1.01 1)">ANYWHERE.</text></g><path class="cls-7" d="M1085,90.13l-136.78,327A182.44,182.44,0,0,1,933.81,445,142.8,142.8,0,0,1,918,465.71a86.33,86.33,0,0,1-14.71,13q-6.82,4.54-11.72,4.54h-6q-4.91,0-12-5.18a86.28,86.28,0,0,1-14.71-14.25,194.31,194.31,0,0,1-15.26-21,153.8,153.8,0,0,1-13.08-25.57l-136.78-327h64.31L889.39,401,1020.72,90.13Z"/><path class="cls-7" d="M1162.4,90.13H1218V482.55H1162.4Z"/><path class="cls-7" d="M1579.27,155.53l170,327H1295.36l169.47-327q16.35-31.73,31.61-48.57t20.16-16.83h10.9c2.18,0,4.72.87,7.63,2.59s6.35,5.08,10.35,10,8.81,11.65,14.44,20.07S1572,142.16,1579.27,155.53Zm71.93,262.26L1522.6,171.72h-1.09L1392.36,417.79Z"/><path class="cls-8" d="M2128.57,189.2V155.53H1986.34q-69.21,0-100.81,33.35t-31.61,98.75q0,66.06,31.33,97.79t100.55,31.73h197.81v65.4h-200q-48.51,0-83.38-10.68t-57.49-34q-22.62-23.31-33.51-60.22t-10.9-89.37q0-101.65,45-149.91t140.87-48.24h199.45V189.2Z"/><path class="cls-8" d="M2544.9,155.53l170,327H2261l169.47-327q16.35-31.73,31.61-48.57t20.16-16.83h10.9c2.18,0,4.72.87,7.63,2.59s6.35,5.08,10.35,10,8.81,11.65,14.44,20.07S2537.63,142.16,2544.9,155.53Zm71.93,262.26-128.6-246.07h-1.09L2358,417.79Z"/><path class="cls-8" d="M2847.88,204.75q0,49.22,36.51,49.21h4.9v64.76q-97,0-97-93.9V186.61q0-96.48,95.9-96.48h289.36v65.4H2884.39Q2847.88,155.53,2847.88,204.75ZM3122,367.93q0-49.2-36.51-49.21h-4.9V254q47.94,0,72.47,22.67t24.52,71.23v38.2q0,48.57-22.88,72.53t-72.48,24H2792.3v-65.4h293.17Q3122,417.15,3122,367.93Z"/><path class="cls-8" d="M3656,90.13v65.4H3490.9v327h-55v-327H3270.75V90.13Z"/></g></g></svg>