<svg width="586" height="109" viewBox="0 0 586 109" fill="none" xmlns="http://www.w3.org/2000/svg">
<g clip-path="url(#clip0)">
<path fill-rule="evenodd" clip-rule="evenodd" d="M70.4674 41.6682C69.7929 41.7405 69.1107 41.6724 68.4638 41.4682C67.7336 41.2122 67.0933 40.7505 66.6203 40.1389C66.1472 39.5274 65.8616 38.7922 65.7981 38.0222C65.7345 37.2521 65.8956 36.4801 66.262 35.7995C66.6284 35.1189 67.1844 34.5588 67.8627 34.1869C68.567 33.8416 69.3766 33.7773 70.1268 34.0068C70.788 34.2069 71.2889 34.5669 71.6896 34.707C72.1304 35.3071 72.5111 35.4271 72.9119 36.3273C73.3037 37.0991 73.4169 37.9822 73.2324 38.8277C73.0833 39.5098 72.7387 40.1339 72.2407 40.624C71.7427 41.1142 71.1127 41.4491 70.4274 41.5882L70.4674 41.6682ZM38.69 96.4783C35.2037 97.1984 39.5916 99.8389 42.3566 99.3188C44.3602 98.9588 43.5187 97.7585 42.3566 97.1184C41.2099 96.5273 39.9085 96.3038 38.6299 96.4783H38.69ZM44.1799 31.5864C43.9395 31.7064 43.7792 31.6864 43.4786 31.8464C42.6395 32.2752 41.9786 32.9855 41.6121 33.8526C41.2457 34.7197 41.1971 35.688 41.475 36.5873C41.6404 37.0867 41.9028 37.5486 42.2471 37.9466C42.5915 38.3447 43.0111 38.671 43.4819 38.907C43.9528 39.1429 44.4656 39.2839 44.991 39.3218C45.5165 39.3597 46.0443 39.2937 46.5442 39.1278C47.2582 38.896 47.8926 38.4686 48.3751 37.8943C48.8577 37.32 49.1689 36.6219 49.2733 35.8796C49.3777 35.1373 49.2712 34.3806 48.9658 33.6958C48.6604 33.011 48.1684 32.4257 47.546 32.0065C47.0483 31.6983 46.489 31.5027 45.9074 31.4336C45.3258 31.3645 44.7362 31.4234 44.1799 31.6064V31.5864ZM40.4932 57.5912C39.9758 57.6964 39.4853 57.9058 39.0516 58.2066C38.6179 58.5074 38.2502 58.8933 37.9708 59.3407C37.6914 59.7881 37.5063 60.2876 37.4267 60.8088C37.3471 61.33 37.3747 61.8619 37.5078 62.372C37.782 63.384 38.4254 64.2571 39.3114 64.8197C40.1975 65.3823 41.2622 65.5938 42.2965 65.4126C42.814 65.295 43.3029 65.0759 43.7349 64.7681C44.1668 64.4602 44.5333 64.0698 44.8129 63.6194C45.0925 63.1691 45.2797 62.6677 45.3636 62.1446C45.4476 61.6214 45.4266 61.0867 45.3019 60.5717C45.0234 59.5618 44.3735 58.6939 43.4821 58.1414C42.5907 57.5889 41.5234 57.3924 40.4932 57.5912ZM66.9411 58.7114C66.4263 58.777 65.9306 58.9475 65.4847 59.2124C65.0387 59.4773 64.6521 59.8308 64.3487 60.2511C64.0453 60.6714 63.8317 61.1494 63.7211 61.6556C63.6104 62.1617 63.6052 62.6852 63.7056 63.1934C63.806 63.7017 64.01 64.1839 64.3049 64.6102C64.5998 65.0364 64.9793 65.3976 65.4198 65.6714C65.8604 65.9451 66.3526 66.1255 66.8659 66.2015C67.3792 66.2774 67.9026 66.2472 68.4037 66.1127C69.3701 65.8747 70.2132 65.286 70.7688 64.4614C71.3243 63.6368 71.5526 62.6353 71.4091 61.6519C71.3327 61.1542 71.1527 60.6781 70.8805 60.2542C70.6084 59.8303 70.2502 59.4681 69.8292 59.191C69.4081 58.9139 68.9335 58.7281 68.4361 58.6454C67.9386 58.5628 67.4293 58.5853 66.9411 58.7114ZM16.9506 54.0105C12.7631 55.2307 14.947 62.312 18.7339 61.2318C22.8814 60.0516 20.7375 52.9103 16.9506 54.0105ZM19.896 30.7662C15.7485 31.7464 16.049 38.5877 20.3167 37.7075C21.1164 37.4489 21.8212 36.9592 22.3419 36.3004C22.8626 35.6416 23.1759 34.8434 23.242 34.0068C23.3233 33.5536 23.2922 33.0873 23.1514 32.6488C23.0106 32.2104 22.7645 31.8129 22.4344 31.4913C22.1044 31.1697 21.7005 30.9336 21.258 30.8037C20.8155 30.6739 20.3479 30.6541 19.896 30.7462V30.7662ZM47.0651 11.2427C45.342 11.6027 43.6389 12.5429 44.0196 14.6433C44.3001 16.2836 46.3839 17.1437 48.3875 16.8437C49.8702 16.6236 51.7736 15.2234 51.2727 13.343C50.9094 12.5769 50.2923 11.9594 49.5257 11.5949C48.759 11.2305 47.8899 11.1414 47.0651 11.3427V11.2427ZM64.717 81.4155C59.748 82.4157 60.249 87.9367 64.717 87.2766C65.5298 87.1611 66.2923 86.815 66.9138 86.2796C67.5354 85.7442 67.9899 85.0418 68.2234 84.2561C68.584 82.2557 66.5003 81.0555 64.6569 81.4155H64.717ZM89.001 58.9314C85.1941 60.7117 86.5565 66.7128 89.5419 65.4726C93.1084 63.9923 92.1466 57.4711 89.001 58.9314ZM17.1109 75.7545C15.3477 76.3146 15.8486 78.455 16.6902 79.7552C19.5754 83.756 23.4424 81.2755 20.998 77.7549C20.3368 76.7947 18.7339 75.3344 17.1109 75.8745V75.7545ZM90.2833 38.1076C87.2378 39.4678 89.6421 45.889 92.2869 44.6888C94.9317 43.4886 92.868 36.9074 90.2833 38.1076ZM26.3276 10.8426C22.3203 11.5627 20.4971 16.2836 24.324 15.8035C25.6805 15.5632 26.8888 14.802 27.6901 13.6831C28.6117 12.3229 28.3112 10.5025 26.3476 10.8426H26.3276ZM85.0137 79.1951C81.267 80.4354 80.5256 85.4163 83.5511 84.3561C85.0538 83.836 87.2177 81.4755 86.797 79.9153C86.7366 79.7439 86.6404 79.5873 86.5147 79.456C86.3891 79.3246 86.2368 79.2214 86.0682 79.1533C85.8995 79.0852 85.7183 79.0537 85.5365 79.0609C85.3547 79.0681 85.1765 79.1139 85.0137 79.1951ZM2.10378 51.5501C0.300519 52.6903 1.36244 58.6114 3.26588 57.6912C4.14748 57.2711 4.30777 55.1507 4.1074 53.9705C3.94711 53.1103 3.1657 50.8699 2.10378 51.5501ZM87.5383 20.1643C85.5347 20.8844 88.9408 26.0654 90.8643 25.4653C92.7878 24.8652 89.5219 19.4642 87.5383 20.1643ZM5.38972 31.3463C3.3861 32.2865 2.14385 38.0476 4.42798 37.1674C6.71212 36.2873 7.49353 30.3462 5.38972 31.3463ZM57.484 98.9387C58.9666 100.459 64.136 98.7587 63.4948 97.4385C62.8537 96.1182 59.9083 96.6783 58.4257 97.5585C57.8847 97.8986 57.4639 98.1786 57.4639 98.9387H57.484ZM66.4201 2.92113C65.4584 3.92132 70.788 6.08171 71.6095 5.28157C72.431 4.48142 67.1815 2.12099 66.4201 2.92113ZM87.939 16.0035C86.5679 14.3943 85.0448 12.9206 83.3908 11.6027C81.7517 10.1602 79.9959 8.85555 78.1413 7.70201C80.1494 10.2312 82.5348 12.4374 85.2141 14.2432L87.939 16.0035ZM25.3859 6.60181C28.69 5.97149 31.8832 4.85939 34.863 3.3012L36.8667 2.10098L37.1472 1.88094C37.4878 1.58089 37.3075 1.88094 37.4678 1.46087C34.2033 2.27715 31.0436 3.46516 28.0507 5.00152C27.5097 5.28157 25.5662 6.18173 25.3859 6.60181ZM7.35328 24.205C10.3387 22.9648 15.3678 16.6637 16.049 13.5431C14.7266 14.0032 10.3787 19.8042 9.29679 21.2045C8.59366 22.1515 7.9704 23.1552 7.43342 24.205H7.35328ZM57.6643 26.9855C59.3097 25.7744 61.0755 24.7354 62.9338 23.885C63.6752 23.5249 64.2562 23.2649 64.9374 22.9848C65.6187 22.7048 66.0995 22.2047 67.0412 22.7848C68.3975 23.6523 69.931 24.2059 71.5294 24.4051C72.3108 24.5251 74.9556 24.4051 75.2361 24.4051C76.0522 24.9188 76.8231 25.501 77.5402 26.1454C78.974 27.4117 80.2762 28.8191 81.4273 30.3462C82.6368 31.8708 83.7222 33.4896 84.6731 35.1871C84.5704 35.678 84.409 36.1548 84.1923 36.6073C84.0212 37.1443 83.8873 37.6923 83.7915 38.2476C83.5306 40.0666 83.6535 41.9199 84.1522 43.6886C84.593 45.2889 85.4145 45.2489 83.1103 47.6893C80.6384 50.0601 77.7523 51.9585 74.5949 53.2904C73.8135 53.6304 73.7934 53.2904 73.1924 52.9103C71.8261 52.1037 70.2987 51.6077 68.7186 51.4575C67.1385 51.3073 65.5447 51.5068 64.0506 52.0415C62.5565 52.5763 61.1988 53.4333 60.0742 54.5516C58.9496 55.6698 58.0857 57.0218 57.5441 58.5113C56.4709 61.2094 56.4709 64.2148 57.5441 66.9129C58.045 68.1131 58.7262 67.873 56.0614 70.4735C54.6329 71.7843 53.0521 72.9193 51.3529 73.8541C49.6518 74.8347 47.892 75.7099 46.0833 76.4746C45.7828 76.4746 45.1416 76.0546 44.781 75.8945C43.256 75.1475 41.5898 74.7316 39.8921 74.6743C36.6262 74.6743 37.1472 75.7945 34.3822 73.6341C34.0816 73.4141 34.0416 73.3341 33.761 73.274C33.2492 72.7308 32.7074 72.2166 32.1381 71.7338C30.5138 70.1992 29.0503 68.5035 27.7702 66.6728C25.6263 63.6723 25.7666 64.0723 26.3076 62.7721C29.0125 56.771 25.5863 47.9294 18.5736 47.1693C16.8334 47.0628 15.1051 47.5187 13.6447 48.4695C12.4425 48.0294 10.8195 45.0089 10.2185 43.6886C9.59457 42.2102 9.06587 40.6935 8.6356 39.1478C8.4463 38.5968 8.4463 37.9985 8.6356 37.4475L8.9161 37.0674C9.75454 35.1699 10.2432 33.137 10.3587 31.0663C10.3081 30.6861 10.341 30.2995 10.4552 29.9333C10.5694 29.5671 10.7621 29.2302 11.0199 28.9459C13.2206 25.7384 15.9272 22.9079 19.0344 20.5644C19.9561 19.7442 20.5371 21.2445 23.6227 20.6844C25.5899 20.3435 27.4554 19.5663 29.0818 18.41C30.7081 17.2537 32.0538 15.7477 33.0197 14.0032C33.345 13.37 33.5874 12.6977 33.741 12.0028C34.1818 9.78239 32.4587 10.0024 36.9468 7.00188C38.0647 6.27233 39.2219 5.60453 40.4131 5.00152C41.6379 4.33514 42.9354 3.8116 44.2801 3.44123C45.9578 3.76966 47.6602 3.95701 49.3693 4.00133C51.6133 4.00133 57.5841 3.2812 57.1433 0.840752C56.6424 0.000598118 55.9211 0.000598095 54.759 0.000598095C53.725 -0.069993 52.6874 -0.069993 51.6534 0.000598095C53.7973 1.44086 46.1835 2.00096 46.1635 0.580705C46.2204 0.424137 46.3238 0.288596 46.4598 0.192115C46.5958 0.0956339 46.758 0.0427871 46.9249 0.0406054C45.2976 -0.187421 43.6397 -0.0437888 42.0761 0.460683C41.5351 0.780741 40.934 1.04079 41.2346 1.76092C41.5351 2.48105 41.5351 1.90095 41.6954 2.44105C40.8939 3.46123 33.9013 6.44178 32.0379 7.20192C30.6755 7.74202 29.5134 6.64182 26.0271 8.22211C24.4104 8.93591 22.9055 9.87916 21.559 11.0226C20.125 12.0805 18.9246 13.422 18.0326 14.9633C17.5787 15.9083 17.4249 16.9692 17.5918 18.0039C17.692 18.784 16.9306 19.3842 16.2093 20.2043C14.1845 22.3713 11.994 24.3777 9.65744 26.2054C9.09643 26.7055 9.19661 26.6655 8.39516 26.4655C7.15291 25.7453 5.2094 28.1458 4.62835 29.386C3.52635 31.7464 1.20215 37.5075 1.44258 40.0079C1.84331 44.3487 4.90885 42.0083 5.14929 42.0083C6.47168 42.1283 9.75763 48.6295 10.6192 50.7699C11.1602 52.0902 10.9798 51.6701 10.6192 52.8903C10.041 54.5732 9.83588 56.3614 10.0181 58.1313C10.7594 63.4722 15.2676 68.6332 20.477 67.553C23.0617 67.0129 22.0599 65.8127 24.905 68.6532C25.2456 68.9933 25.5863 69.3933 25.8868 69.7334L26.3677 70.2935C26.6682 70.6936 26.568 70.6736 26.9086 70.8536C27.2493 71.0336 31.4969 77.4348 31.4569 78.295C31.1043 78.8341 30.8468 79.4294 30.6955 80.0553C30.175 81.539 30.2178 83.1618 30.8157 84.6161C31.7417 86.5573 33.1731 88.2145 34.9601 89.4144C36.7471 90.6144 38.8241 91.313 40.9741 91.4374C45.8629 91.6774 50.5514 88.7369 50.5113 84.096C50.5065 83.2911 50.3642 82.4928 50.0906 81.7356C49.8702 80.8954 50.7518 80.4954 50.9121 79.8552C51.3061 79.501 51.6682 79.1127 51.994 78.695C54.5556 76.0871 57.4608 73.8393 60.6296 72.0138C61.3109 71.6337 61.391 71.3737 62.1123 71.7538C63.7768 72.6191 65.6512 73.0003 67.5221 72.854C69.7106 72.605 71.7829 71.7391 73.4966 70.3576C75.2104 68.9761 76.4948 67.136 77.1996 65.0525C77.8288 63.1989 77.9669 61.2142 77.6003 59.2915C77.6003 57.9112 81.6076 53.7905 82.369 53.0903C83.8778 51.6246 85.5442 50.3298 87.338 49.2296L87.7186 49.3296C88.5924 50.2978 89.8054 50.8938 91.1069 50.9943C92.4084 51.0948 93.6987 50.6922 94.7113 49.8697C95.6038 48.8588 96.2751 47.673 96.6822 46.3882C97.0893 45.1034 97.2233 43.7479 97.0756 42.4084C96.9416 40.5435 96.4177 38.7274 95.5377 37.0771C94.6577 35.4268 93.4411 33.9788 91.9663 32.8266C91.4143 32.4528 90.7809 32.216 90.1187 32.136C89.4566 32.0559 88.7848 32.135 88.1594 32.3665C87.2378 32.5266 87.5383 33.1667 86.3161 31.9065C83.6177 29.0352 81.3318 25.8037 79.5238 22.3047C78.7023 20.9644 79.9646 21.7246 79.8244 18.704C79.5839 13.9632 72.3709 7.84204 65.799 9.42233C65.0819 9.55667 64.4013 9.84045 63.8015 10.2552C63.2017 10.6699 62.6963 11.2062 62.3181 11.8291C61.94 12.452 61.6977 13.1475 61.607 13.8703C61.5163 14.593 61.5792 15.3267 61.7917 16.0235C61.932 16.4836 62.1925 17.0837 62.2526 17.4238C62.3127 17.7639 61.932 18.2039 61.8519 18.684L61.5112 19.0441C60.3428 20.4935 58.9965 21.7906 57.504 22.9048C56.9495 23.2772 56.4145 23.6778 55.9011 24.105L52.3747 26.1054C51.2727 26.6855 51.5132 26.5855 50.3711 26.1054C48.6314 25.2877 46.7071 24.9404 44.7907 25.0984C42.8744 25.2564 41.0332 25.914 39.4513 27.0056C39.1715 27.1702 38.9154 27.3721 38.69 27.6057C38.1637 27.9632 37.6856 28.3867 37.2674 28.8659C37.1071 29.0659 37.1071 29.1059 36.9668 29.286C36.499 29.7818 36.1135 30.3491 35.8248 30.9663C35.3277 31.7199 34.9807 32.562 34.8029 33.4467C34.3718 35.052 34.3718 36.7424 34.8029 38.3476C35.3043 40.3807 36.4498 42.1978 38.0688 43.5286C38.5433 43.9914 39.0674 44.4006 39.6317 44.7488C40.8956 45.4992 42.2885 46.008 43.7391 46.2491C45.4534 46.4952 47.2015 46.3447 48.8483 45.809C50.1734 45.378 51.4041 44.6992 52.4749 43.8086C54.6899 42.0562 56.1285 39.5067 56.4821 36.7073C56.9029 32.0465 54.9995 30.7062 55.1598 29.9061C55.8962 28.7989 56.7867 27.8021 57.8045 26.9455L57.6643 26.9855ZM3.28592 65.7527C7.59371 67.1529 11.8614 80.2153 9.29679 79.7552C8.43269 78.7905 7.69233 77.7221 7.0928 76.5746C6.25128 75.1544 7.0928 75.7945 6.73215 74.4342C6.56424 73.7408 6.31543 73.0694 5.99081 72.4339C5.69932 71.8461 5.32854 71.3009 4.88882 70.8136C4.5482 70.4535 4.46806 70.5335 4.1074 70.2735C3.74675 70.0134 3.8269 69.9734 3.6065 69.4133C2.80505 67.413 2.24403 66.5128 3.26588 65.7126L3.28592 65.7527ZM17.3113 88.6969C17.9587 88.407 18.5818 88.0659 19.1747 87.6767C19.5954 87.4366 19.6756 87.2766 20.1364 87.4366C21.7623 88.0206 23.3048 88.8141 24.7247 89.7971C26.0271 90.7172 29.9542 93.7978 29.4332 96.1582C29.2091 96.3302 28.9344 96.4234 28.6518 96.4234C28.3692 96.4234 28.0945 96.3302 27.8704 96.1582C26.6252 95.5594 25.4144 94.8915 24.2438 94.1579L24.8048 93.9578C24.8048 92.6976 21.6391 90.4772 19.9961 90.6172L19.8559 91.1373C19.4552 90.8573 18.9943 90.4772 18.5335 90.0971C17.7521 89.437 17.4315 89.357 17.3113 88.8369V88.6969ZM70.4073 97.4585C70.5676 96.0782 72.7516 94.3179 73.6131 93.6378C75.9949 91.8615 78.6654 90.5082 81.5074 89.637C81.9081 89.517 82.6294 89.457 82.8899 89.357C85.4311 87.3975 87.7793 85.2005 89.9026 82.7958C90.4834 82.1631 90.8906 81.3914 91.0847 80.5554C91.9859 78.2295 93.1275 76.0037 94.4909 73.9142C95.3214 72.5404 96.3625 71.3051 97.5765 70.2535C96.9727 71.8625 96.2285 73.4154 95.3524 74.8943C94.4709 76.1346 93.7696 77.6748 92.8479 79.1151C90.1518 83.1444 86.8853 86.7626 83.1504 89.8571C82.5894 90.3572 81.7879 90.9373 81.1468 91.3574C79.7643 92.4175 80.0448 92.3775 79.0029 92.5176C77.4371 93.0639 76.0133 93.9523 74.8353 95.118C74.4346 95.7982 74.6149 95.5581 73.8936 95.9382C72.7682 96.6111 71.5635 97.1419 70.3071 97.5185L70.4073 97.4585ZM2.38429 46.009C3.90704 45.3489 5.52998 47.5093 6.05092 48.4095C8.29498 52.4102 8.45527 61.0718 5.12925 62.9521C4.73768 63.1781 4.28456 63.2746 3.83472 63.2279C3.38488 63.1812 2.96135 62.9937 2.62472 62.6921C2.34316 62.4518 2.09398 62.1762 1.88338 61.8719C1.18211 60.8718 1.50269 61.7519 1.16208 61.2518C0.759674 59.5248 0.465241 57.7744 0.280483 56.0109C0.0801204 52.7503 -0.460858 50.7099 0.88157 47.6893C1.00922 47.3342 1.20842 47.009 1.46688 46.7338C1.72534 46.4585 2.03757 46.2391 2.38429 46.0891V46.009ZM73.8335 29.266L70.9683 28.0057C69.3392 27.5376 67.6131 27.5211 65.9752 27.9581C64.3374 28.3951 62.8496 29.269 61.6715 30.4862C60.4916 31.7385 59.6458 33.2667 59.2117 34.9304C58.7775 36.5941 58.7691 38.3401 59.187 40.0079C59.3305 40.5442 59.5044 41.0718 59.708 41.5882C60.3091 43.2085 61.0905 42.7684 58.5058 45.4689C57.7782 46.1884 57.0016 46.8568 56.1816 47.4693C54.0948 49.0293 51.8522 50.37 49.4895 51.47C46.5642 52.8103 48.7081 52.3502 45.0815 50.9699C41.0743 49.4897 38.3493 50.9699 37.588 50.7899C37.1278 50.564 36.6857 50.3032 36.2656 50.0098L35.0033 49.1096C34.6098 48.7773 34.2352 48.4234 33.8813 48.0494C32.5765 46.8353 31.3952 45.4952 30.3549 44.0487L28.9924 42.0483C26.548 38.2076 27.67 40.388 28.9924 36.3273C29.6643 34.1985 29.6643 31.9149 28.9924 29.7861C28.8653 29.4947 28.7907 29.1832 28.772 28.8659C29.3263 28.0368 30.0017 27.2952 30.7756 26.6655L31.537 25.9854C32.6354 25.1372 33.7792 24.3492 34.9632 23.6249C35.6044 23.2249 36.7064 22.8048 37.5479 22.3647C37.9715 22.1345 38.4139 21.9404 38.8703 21.7846C40.1927 21.3245 40.6735 20.5644 41.6954 21.2045C44.162 22.4748 46.986 22.8766 49.7099 22.3447C51.7071 22.0493 53.5775 21.1885 55.0996 19.8642C56.0802 19.0926 56.838 18.0749 57.2956 16.9151C57.7533 15.7553 57.8943 14.495 57.7044 13.263C57.4439 11.9028 56.382 11.7227 59.0067 9.68237C60.1246 8.87428 61.3354 8.20271 62.6132 7.68201L63.6551 7.26193C63.9757 7.1019 63.7954 7.26193 63.9757 7.02189C64.8373 7.02189 65.4984 6.30175 66.5003 6.76184C68.7368 7.76058 71.1051 8.43422 73.533 8.76221C75.9461 10.2287 78.1672 11.9892 80.1449 14.0032C80.5657 14.4432 82.8899 16.5636 82.7496 17.2638C82.3851 18.9551 82.5603 20.7179 83.2506 22.3047C84.2541 25.0804 86.0776 27.4868 88.48 29.206C91.3652 31.3063 95.5929 31.7264 94.2505 26.3654C93.4089 23.0648 89.0611 17.4038 86.236 16.1636C85.8781 16.0028 85.501 15.8885 85.1139 15.8235C83.7915 15.6235 84.5128 16.1636 82.2287 14.1432L76.1177 8.14209C76.1177 7.58199 76.4182 7.1219 75.4164 6.14172C73.4128 4.48142 68.1232 2.66109 65.5986 1.76092C59.8082 -0.239446 60.85 2.82112 62.1324 3.60126C62.3528 4.18136 62.493 3.8213 62.6533 4.40141C61.3466 5.40614 59.8561 6.14677 58.2654 6.58181C56.6008 7.20496 54.8844 7.68022 53.1361 8.00207C51.4015 7.28176 49.5295 6.95138 47.6527 7.03435C45.7759 7.11732 43.9404 7.61161 42.2764 8.48215C40.8493 9.15489 39.641 10.2156 38.7901 11.5427C36.7865 14.5433 38.2692 15.9035 37.588 16.9637L36.0652 18.784C35.6845 19.2041 35.1235 19.5442 34.302 20.3243C33.4805 21.1045 33.0598 21.3045 32.4587 21.8046C31.8576 22.3047 31.0361 22.7848 30.4551 23.1849L26.4478 25.7253C25.8467 25.9654 25.7465 25.7253 25.2256 25.3853C24.8413 25.1972 24.4384 25.0497 24.0234 24.9452C16.0089 23.1248 9.01628 34.1669 13.0035 40.9481C13.8618 42.5051 15.2887 43.6716 16.9869 44.2044C18.6851 44.7373 20.5238 44.5955 22.12 43.8086C24.1236 42.9485 23.783 42.2684 26.1272 44.7688C28.2274 47.1575 29.9442 49.8567 31.2164 52.7703C32.7592 55.9109 32.1782 54.5106 31.2164 57.3511C30.6673 59.0172 30.5149 60.7882 30.7712 62.5234C31.0275 64.2586 31.6856 65.9103 32.6931 67.3472C33.7005 68.7841 35.0297 69.9667 36.575 70.8011C38.1204 71.6355 39.8392 72.0986 41.5952 72.1538C44.1845 72.215 46.708 71.3363 48.6977 69.681C50.6874 68.0256 52.0081 65.7059 52.4148 63.1522C53.0159 59.5115 51.5332 58.7114 52.4148 57.3111C54.9964 53.3789 58.4175 50.0658 62.4329 47.6093C62.7535 47.4293 63.1742 47.1292 63.4748 46.9692C64.2963 46.5891 64.9174 47.9894 67.0613 48.2495C68.3182 48.6068 69.634 48.7095 70.9312 48.5514C72.2285 48.3934 73.481 47.9779 74.6149 47.3293C76.7431 45.9666 78.2871 43.862 78.9464 41.4252C79.6056 38.9885 79.333 36.3939 78.1814 34.1469C77.3799 32.5466 75.196 29.626 73.7133 29.226L73.8335 29.266ZM71.4091 19.0641L70.9082 18.8241H70.7479H70.4674C69.4696 18.4306 68.6406 17.702 68.1232 16.7637C67.9224 16.4568 67.7868 16.1121 67.7248 15.7508C67.6628 15.3895 67.6756 15.0194 67.7625 14.6633C68.0631 13.8031 68.6241 13.6831 69.0649 13.343C69.8034 13.2994 70.5445 13.3532 71.2689 13.5031C71.5712 13.5923 71.8608 13.72 72.1304 13.8831C73.5931 14.7033 75.1359 16.6437 73.9337 18.2239C73.1924 19.2241 72.5512 18.8841 71.309 19.1041L71.4091 19.0641ZM41.6153 81.0755C42.4165 81.3503 43.0882 81.9102 43.5021 82.6482C43.9161 83.3862 44.0432 84.2506 43.8593 85.0762C43.4677 85.886 42.779 86.5144 41.936 86.8309C41.0929 87.1475 40.1602 87.128 39.3311 86.7765H39.2309C37.9085 86.3364 36.0452 84.7761 36.6262 82.8958C36.8559 82.3074 37.2578 81.8018 37.7797 81.4449C38.3015 81.0881 38.919 80.8966 39.5515 80.8954C40.2336 80.876 40.9132 80.9845 41.5551 81.2155L41.6153 81.0755ZM96.7349 64.4124C96.7349 61.2118 98.2777 52.9103 101.083 52.9903C101.844 54.2105 101.083 56.9911 100.983 58.4713C100.582 58.2913 100.822 58.2113 100.422 58.0713C99.8253 58.8415 99.4111 59.7364 99.2099 60.6889C99.0086 61.6415 99.0256 62.6272 99.2595 63.5723C99.8606 63.5723 99.3597 63.5723 99.6602 63.4322L99.9408 63.2122C99.7541 64.1647 99.4928 65.1011 99.1593 66.0127C98.6584 67.673 98.7987 67.533 97.9772 68.3331C97.4563 68.3331 97.7368 68.3331 97.316 68.0731C95.249 70.6294 93.3291 73.3008 91.5656 76.0746C90.1631 78.395 90.9846 77.5748 90.3033 79.3752C89.0611 82.5757 84.6531 87.3766 81.0265 88.3768C80.371 88.5346 79.6926 88.5752 79.0229 88.4968C78.542 88.4968 77.9209 89.0169 77.4801 89.277C74.6705 90.9759 71.9916 92.8816 69.4656 94.978C68.5239 95.8782 69.0449 95.1981 68.6642 96.4583C68.4561 96.9729 68.073 97.3979 67.5822 97.6585C64.3725 99.6431 60.6782 100.709 56.9029 100.739C55.1998 100.739 53.096 100.579 52.3547 99.6189C51.6133 98.6587 53.1561 96.5783 53.8574 96.0982C56.2988 94.4542 59.1678 93.5574 62.1123 93.5178C63.0179 93.4178 63.9317 93.4178 64.8372 93.5178C65.8791 93.6578 65.9593 94.0178 66.8409 93.5178C68.1633 92.8776 69.3454 92.3175 70.4875 91.6774C71.6586 91.0733 72.7957 90.4055 73.8936 89.6771C74.976 88.9385 75.9591 88.0646 76.8189 87.0766C76.4847 86.113 76.402 85.0804 76.5785 84.076C77.0552 81.5329 78.3079 79.1993 80.165 77.3948C81.8881 75.6345 85.6148 73.134 88.5001 73.9342C89.9827 74.3542 89.1011 74.9543 90.8243 73.4341C91.2049 73.094 91.4454 72.834 91.8862 72.4139C93.3336 71.0018 94.6173 69.4316 95.7131 67.733C96.9353 65.7327 96.6548 66.1527 96.6548 64.3924L96.7349 64.4124ZM93.5692 53.8905C92.5956 52.9479 91.2987 52.4114 89.9427 52.3902C86.1358 52.3902 83.2105 56.1309 82.0484 59.7316C81.3187 61.8907 81.194 64.208 81.6877 66.4328C81.8881 67.1329 82.3289 67.633 81.8881 68.2731C79.2418 71.6417 75.8735 74.3758 72.0303 76.2746C70.9082 76.8747 71.2288 76.7547 70.1669 76.2746C63.9156 73.4941 54.9394 78.375 54.759 84.8362C54.7022 85.619 54.7905 86.4057 55.0195 87.1566C55.1397 87.4566 55.2599 87.7767 55.3801 88.0367C55.5586 88.306 55.7193 88.5867 55.861 88.8769C55.028 89.886 53.9988 90.7162 52.8355 91.3174C51.6133 92.0175 45.883 94.638 44.8211 94.2779C43.4363 93.631 41.9534 93.2187 40.4331 93.0577C39.5496 92.9428 38.6592 92.8893 37.7683 92.8976C37.3807 92.9554 36.9854 92.9338 36.6065 92.8341C36.2276 92.7343 35.873 92.5586 35.5643 92.3175C34.3798 91.6461 33.2538 90.8766 32.1982 90.0171C31.2966 89.277 26.6682 85.1362 26.6482 84.3761C27.0813 83.5557 27.3469 82.6575 27.4294 81.7338C27.512 80.81 27.4099 79.8791 27.129 78.9951C24.5444 69.1733 10.6392 66.0127 11.7011 76.0145C12.1019 79.7152 14.4461 80.1553 13.304 81.7756C13.0327 82.2008 12.6104 82.508 12.1219 82.6358H11.8013C12.4382 83.4962 13.1416 84.3055 13.9051 85.0562C14.1856 84.9562 15.2275 83.796 16.5098 83.716C17.4115 83.716 19.6956 86.6165 23.763 86.1364C24.7247 86.0364 24.4642 85.9164 25.2256 86.4565C27.4128 88.102 29.4268 89.9653 31.2365 92.0175C31.8906 92.6832 32.4997 93.3916 33.0598 94.1379C32.639 94.998 32.058 95.5781 32.9396 96.6383C34.979 98.3233 37.3889 99.5023 39.9723 100.079C41.9612 100.619 44.0304 100.802 46.0833 100.619C47.2655 100.479 49.1489 99.9589 49.1489 98.4987C49.1489 97.7585 48.8083 97.6585 48.7482 96.9984C49.438 96.3721 50.1675 95.7908 50.9321 95.2581C53.4008 93.7115 55.9945 92.3733 58.6861 91.2573C59.1937 91.314 59.6919 91.435 60.1688 91.6174C66.1797 93.0577 74.1942 88.1368 74.1942 82.2757C74.1942 80.7754 73.553 81.0155 75.9774 78.275C77.8221 76.1959 79.8323 74.2692 81.9883 72.5139C85.2742 69.9334 83.5311 70.8736 85.9955 71.4737C90.7241 72.6139 95.4727 66.1127 95.4727 59.7916C95.4072 58.4346 95.7341 57.0875 96.4144 55.9109C97.4207 53.7152 98.6852 51.6469 100.181 49.7497C100.522 49.9698 100.983 51.13 101.484 50.7699C101.704 49.2308 101.704 47.6682 101.484 46.1291C101.343 45.729 100.762 46.4891 100.301 43.5086C100.218 42.9517 100.165 42.3908 100.141 41.8283C100.141 40.0079 100.542 40.8081 100.622 40.368C100.362 38.8076 99.9599 37.2742 99.4198 35.7872C98.4781 35.7872 98.3379 36.6673 98.2176 37.7875C98.0876 39.7935 98.1952 41.8078 98.5382 43.7886C98.5382 44.5488 99.0391 45.789 99.0992 46.4491C99.1593 48.4895 94.9718 53.5304 93.5692 53.8905Z" fill="url(#paint0_radial)"/>
<path d="M173.193 14.3626L151.374 66.4722C150.736 68.0164 149.965 69.5023 149.07 70.913C148.337 72.092 147.491 73.1974 146.545 74.2136C145.84 74.972 145.046 75.6435 144.181 76.214C143.647 76.6407 142.999 76.8985 142.317 76.9541H141.356C140.614 76.9 139.91 76.6049 139.352 76.114C138.523 75.506 137.769 74.8008 137.108 74.0136C136.218 72.95 135.401 71.8272 134.664 70.653C133.875 69.3834 133.204 68.0442 132.66 66.6522L110.82 14.6427H121.079L141.977 63.8917L162.935 14.3626H173.193Z" fill="#E6E7E7"/>
<path d="M185.556 14.3626H194.352V76.8941H185.556V14.3626Z" fill="#E6E7E7"/>
<path d="M252.096 24.7845L279.225 76.8941H206.774L233.823 24.8846C235.181 22.1065 236.876 19.5064 238.872 17.1431C240.495 15.3628 241.577 14.4626 242.098 14.4626H243.841C244.272 14.4922 244.688 14.6373 245.043 14.8827C245.688 15.3143 246.251 15.856 246.706 16.483C247.347 17.2632 248.109 18.3434 249.01 19.6836C249.912 21.0239 250.934 22.6642 252.096 24.7845ZM263.577 66.5922L243.04 27.365H242.879L222.262 66.5922H263.577Z" fill="#E6E7E7"/>
<path d="M339.775 30.1455V24.7845H317.074C309.7 24.7845 304.351 26.5649 301.045 30.1055C297.739 33.6462 295.995 38.8871 295.995 45.8484C295.995 52.8097 297.658 58.0506 301.004 61.4313C304.351 64.8119 309.68 66.4722 317.033 66.4722H348.631V76.8941H316.573C312.078 76.9854 307.595 76.4124 303.269 75.1938C299.793 74.206 296.632 72.3387 294.092 69.7728C291.549 67.0649 289.712 63.7744 288.742 60.191C287.489 55.5498 286.902 50.7544 286.999 45.9484C286.999 35.1464 289.39 27.1783 294.172 22.044C298.954 16.9098 306.454 14.3493 316.673 14.3626H348.631V30.1455H339.775Z" fill="#9BB2CA"/>
<path d="M406.235 24.7845L433.384 76.8941H360.913L387.962 24.8846C389.319 22.1065 391.015 19.5064 393.011 17.1431C394.634 15.3628 395.716 14.4626 396.237 14.4626H397.98C398.411 14.4922 398.826 14.6373 399.182 14.8827C399.831 15.3091 400.394 15.8517 400.845 16.483C401.486 17.2632 402.248 18.3434 403.149 19.6836C404.051 21.0239 405.073 22.6642 406.235 24.7845ZM417.716 66.5922L397.198 27.365H397.018L376.401 66.5922H417.716Z" fill="#9BB2CA"/>
<path d="M454.602 32.626C454.602 37.8669 456.606 40.4674 460.433 40.4674H461.214V50.7893C450.889 50.7893 445.726 45.8017 445.726 35.8266V29.8255C445.726 19.5703 450.829 14.4426 461.034 14.4426H507.217V24.8646H460.433C456.546 24.8112 454.602 27.3984 454.602 32.626ZM498.361 58.6308C498.361 53.4165 496.418 50.8027 492.531 50.7893H491.749V40.4674C495.913 40.1475 500.043 41.4124 503.31 44.0081C505.982 46.4085 507.318 50.1892 507.318 55.3502V61.4513C507.318 66.6122 506.115 70.4529 503.671 73.0134C501.227 75.5739 497.38 76.8141 492.11 76.8141H445.826V66.4722H492.631C496.418 66.4722 498.361 63.8717 498.361 58.6308Z" fill="#9BB2CA"/>
<path d="M583.596 14.3626V24.7845H557.248V76.8941H548.452V24.8846H522.104V14.3626H583.596Z" fill="#9BB2CA"/>
</g>
<defs>
<radialGradient id="paint0_radial" cx="0" cy="0" r="1" gradientUnits="userSpaceOnUse" gradientTransform="translate(40.6335 35.1342) scale(50.7919 50.2022)">
<stop stop-color="#E6E7E7"/>
<stop offset="1" stop-color="#9BB2CA"/>
</radialGradient>
<clipPath id="clip0">
<rect width="586" height="109" fill="white"/>
</clipPath>
</defs>
</svg>
