<svg xmlns="http://www.w3.org/2000/svg" xmlns:xlink="http://www.w3.org/1999/xlink" viewBox="0 0 292.47 54.49"><defs><style>.cls-1{fill-rule:evenodd;fill:url(#Gradiente_sem_nome_13);}.cls-2,.cls-3,.cls-7{isolation:isolate;}.cls-3,.cls-7{font-size:11.55px;font-family:Calibri-Bold, Calibri;font-weight:700;letter-spacing:0.04em;}.cls-3,.cls-8{fill:#e6e7e7;}.cls-4{letter-spacing:0.02em;}.cls-5{letter-spacing:0.02em;}.cls-6{letter-spacing:0.03em;}.cls-7,.cls-9{fill:#9bb2ca;}</style><radialGradient id="Gradiente_sem_nome_13" cx="20.28" cy="17.64" r="25.35" gradientTransform="translate(0 0.1) scale(1 0.99)" gradientUnits="userSpaceOnUse"><stop offset="0" stop-color="#9ab1c8"/><stop offset="0" stop-color="#e6e7e7"/><stop offset="1" stop-color="#9bb2ca"/></radialGradient></defs><g id="Camada_2" data-name="Camada 2"><g id="Camada_1-2" data-name="Camada 1"><path class="cls-1" d="M35.17,20.83a2.45,2.45,0,0,1-1-.1,2,2,0,0,1-.3-3.64A1.54,1.54,0,0,1,35,17c.33.1.58.28.78.35.22.3.41.36.61.81a1.88,1.88,0,0,1,.16,1.25,1.8,1.8,0,0,1-1.4,1.38ZM19.31,48.23c-1.74.36.45,1.68,1.83,1.42,1-.18.58-.78,0-1.1a3.13,3.13,0,0,0-1.86-.32Zm2.74-32.44c-.12.06-.2.05-.35.13a2,2,0,0,0-1,2.37,2,2,0,0,0,2.53,1.27A2,2,0,0,0,23.73,16a2,2,0,0,0-1.68-.2Zm-1.84,13a1.94,1.94,0,0,0-1.49,2.39,2.1,2.1,0,0,0,2.39,1.52,2,2,0,0,0,1.5-2.42,2.08,2.08,0,0,0-2.4-1.49Zm13.2.56a1.89,1.89,0,1,0,.73,3.7,2,2,0,0,0,1.5-2.23,1.8,1.8,0,0,0-2.23-1.47ZM8.46,27c-2.09.61-1,4.15.89,3.61,2.07-.59,1-4.16-.89-3.61ZM9.93,15.38c-2.07.49-1.92,3.91.21,3.47A2.12,2.12,0,0,0,11.6,17a1.41,1.41,0,0,0-1.67-1.63ZM23.49,5.62c-.86.18-1.71.65-1.52,1.7.14.82,1.18,1.25,2.18,1.1.74-.11,1.69-.81,1.44-1.75a1.84,1.84,0,0,0-2.1-1ZM32.3,40.7c-2.48.5-2.23,3.26,0,2.93a2.14,2.14,0,0,0,1.75-1.51c.18-1-.86-1.6-1.78-1.42ZM44.42,29.46c-1.9.89-1.22,3.89.27,3.27,1.78-.74,1.3-4-.27-3.27ZM8.54,37.87c-.88.28-.63,1.35-.21,2,1.44,2,3.37.76,2.15-1-.33-.48-1.13-1.21-1.94-.94ZM45.06,19.05c-1.52.68-.32,3.89,1,3.29s.29-3.89-1-3.29ZM13.14,5.42c-2,.36-2.91,2.72-1,2.48a2.63,2.63,0,0,0,1.68-1.06c.46-.68.31-1.59-.67-1.42ZM42.43,39.59c-1.87.62-2.24,3.11-.73,2.58.75-.26,1.83-1.44,1.62-2.22a.64.64,0,0,0-.89-.36ZM1.05,25.77c-.9.57-.37,3.53.58,3.07.44-.21.52-1.27.42-1.86-.08-.43-.47-1.55-1-1.21ZM43.69,10.08c-1,.36.7,2.95,1.66,2.65s-.67-3-1.66-2.65Zm-41,5.59c-1,.47-1.62,3.35-.48,2.91s1.53-3.41.48-2.91Zm26,33.79c.74.76,3.32-.09,3-.75s-1.79-.38-2.53.06c-.27.17-.48.31-.48.69Zm4.46-48c-.48.5,2.18,1.58,2.59,1.18s-2.21-1.58-2.59-1.18ZM43.89,8a16.46,16.46,0,0,0-2.27-2.2A19.78,19.78,0,0,0,39,3.85a15.75,15.75,0,0,0,3.53,3.27L43.89,8ZM12.67,3.3A17.12,17.12,0,0,0,17.4,1.65l1-.6.14-.11c.17-.15.08,0,.16-.21A21.93,21.93,0,0,0,14,2.5c-.27.14-1.24.59-1.33.8Zm-9,8.8c1.49-.62,4-3.77,4.34-5.33C7.35,7,5.18,9.9,4.64,10.6a10.66,10.66,0,0,0-.93,1.5Zm25.11,1.39a14.88,14.88,0,0,1,2.63-1.55c.37-.18.66-.31,1-.45s.58-.39,1.05-.1a5.39,5.39,0,0,0,2.24.81c.39.06,1.71,0,1.85,0a8.48,8.48,0,0,1,1.15.87,14.22,14.22,0,0,1,1.94,2.1,18.23,18.23,0,0,1,1.62,2.42,3.13,3.13,0,0,1-.24.71,6.15,6.15,0,0,0-.2.82,6.59,6.59,0,0,0,.18,2.72c.22.8.63.78-.52,2a14,14,0,0,1-4.25,2.8c-.39.17-.4,0-.7-.19a5.39,5.39,0,0,0-7.81,2.8,5.69,5.69,0,0,0,0,4.2c.25.6.59.48-.74,1.78a12.11,12.11,0,0,1-2.35,1.69A23.9,23.9,0,0,1,23,38.23c-.15,0-.47-.21-.65-.29a6,6,0,0,0-2.44-.61c-1.63,0-1.37.56-2.75-.52-.15-.11-.17-.15-.31-.18a10,10,0,0,0-.81-.77,16.44,16.44,0,0,1-2.18-2.53c-1.07-1.5-1-1.3-.73-1.95,1.35-3-.36-7.42-3.86-7.8a4.05,4.05,0,0,0-2.46.65c-.6-.22-1.41-1.73-1.71-2.39a18.84,18.84,0,0,1-.79-2.27,1.31,1.31,0,0,1,0-.85l.14-.19a8.62,8.62,0,0,0,.72-3,1.32,1.32,0,0,1,.33-1.06,18,18,0,0,1,4-4.19c.46-.41.75.34,2.29.06A6.66,6.66,0,0,0,16.48,7a4.15,4.15,0,0,0,.36-1c.22-1.11-.64-1,1.6-2.5a18.23,18.23,0,0,1,1.73-1,9.08,9.08,0,0,1,1.93-.78A15.26,15.26,0,0,0,24.64,2c1.12,0,4.1-.36,3.88-1.58C28.27,0,27.91,0,27.33,0a11.36,11.36,0,0,0-1.55,0c1.07.72-2.73,1-2.74.29a.41.41,0,0,1,.38-.27A5.42,5.42,0,0,0,21,.23c-.27.16-.57.29-.42.65s.15.07.23.34c-.4.51-3.89,2-4.82,2.38-.68.27-1.26-.28-3,.51a9.16,9.16,0,0,0-2.23,1.4A6.48,6.48,0,0,0,9,7.48,2.57,2.57,0,0,0,8.78,9c.05.39-.33.69-.69,1.1a28.56,28.56,0,0,1-3.27,3c-.28.25-.23.23-.63.13-.62-.36-1.59.84-1.88,1.46C1.76,15.87.6,18.75.72,20c.2,2.17,1.73,1,1.85,1,.66.06,2.3,3.31,2.73,4.38.27.66.18.45,0,1.06A6.14,6.14,0,0,0,5,29.06c.37,2.67,2.62,5.25,5.22,4.71,1.29-.27.79-.87,2.21.55.17.17.34.37.49.54l.24.28c.15.2.1.19.27.28s2.29,3.29,2.27,3.72a2.82,2.82,0,0,0-.38.88,3.21,3.21,0,0,0,.06,2.28,6,6,0,0,0,5.07,3.41c2.44.12,4.78-1.35,4.76-3.67A3.54,3.54,0,0,0,25,40.86c-.11-.42.33-.62.41-.94a4.51,4.51,0,0,0,.54-.58A20.12,20.12,0,0,1,30.26,36c.34-.19.38-.32.74-.13a5,5,0,0,0,2.7.55,5.79,5.79,0,0,0,4.83-3.9,5.67,5.67,0,0,0,.2-2.88c0-.69,2-2.75,2.38-3.1a14.26,14.26,0,0,1,2.48-1.93l.19.05a2.54,2.54,0,0,0,3.49.27,4.84,4.84,0,0,0,1.18-3.73,6.69,6.69,0,0,0-2.55-4.79A2.09,2.09,0,0,0,44,16.18c-.46.08-.31.4-.92-.23a21.26,21.26,0,0,1-3.39-4.8c-.41-.67.22-.29.15-1.8-.12-2.37-3.72-5.43-7-4.64a2.59,2.59,0,0,0-2,3.3c.07.23.2.53.23.7s-.16.39-.2.63l-.17.18a11.1,11.1,0,0,1-2,1.93,9.74,9.74,0,0,0-.8.6l-1.76,1c-.55.29-.43.24-1,0a5.48,5.48,0,0,0-5.45.45,1.79,1.79,0,0,0-.38.3,3.71,3.71,0,0,0-.71.63c-.08.1-.08.12-.15.21a3.2,3.2,0,0,0-.57.84,3.51,3.51,0,0,0-.51,1.24,4.73,4.73,0,0,0,0,2.45A4.86,4.86,0,0,0,19,21.76a4.51,4.51,0,0,0,.78.61,5.91,5.91,0,0,0,2.05.75,5.64,5.64,0,0,0,2.55-.22,5.48,5.48,0,0,0,1.81-1,5.39,5.39,0,0,0,2-3.55c.21-2.33-.74-3-.66-3.4a7,7,0,0,1,1.32-1.48ZM1.64,32.87c2.15.7,4.28,7.23,3,7a7.79,7.79,0,0,1-1.1-1.59c-.42-.71,0-.39-.18-1.07a4.56,4.56,0,0,0-.37-1,3.59,3.59,0,0,0-.55-.81c-.17-.18-.21-.14-.39-.27s-.14-.15-.25-.43c-.4-1-.68-1.45-.17-1.85Zm7,11.47a6.63,6.63,0,0,0,.93-.51c.21-.12.25-.2.48-.12a9.9,9.9,0,0,1,2.29,1.18c.65.46,2.61,2,2.35,3.18a.64.64,0,0,1-.78,0,18.53,18.53,0,0,1-1.81-1l.28-.1c0-.63-1.58-1.74-2.4-1.67l-.07.26c-.2-.14-.43-.33-.66-.52-.39-.33-.55-.37-.61-.63Zm26.5,4.38c.08-.69,1.17-1.57,1.6-1.91a12.92,12.92,0,0,1,3.94-2c.2-.06.56-.09.69-.14a25.2,25.2,0,0,0,3.5-3.28,2.49,2.49,0,0,0,.59-1.12,17.94,17.94,0,0,1,1.7-3.32,7.67,7.67,0,0,1,1.54-1.83,14.66,14.66,0,0,1-1.11,2.32c-.44.62-.79,1.39-1.25,2.11a25.09,25.09,0,0,1-4.84,5.37c-.28.25-.68.54-1,.75-.69.53-.55.51-1.07.58a5.56,5.56,0,0,0-2.08,1.3c-.2.34-.11.22-.47.41a7.91,7.91,0,0,1-1.79.79ZM1.19,23c.76-.33,1.57.75,1.83,1.2,1.12,2,1.2,6.33-.46,7.27a1.07,1.07,0,0,1-1.25-.13,2.14,2.14,0,0,1-.37-.41c-.35-.5-.19-.06-.36-.31A21.38,21.38,0,0,1,.14,28c-.1-1.63-.37-2.65.3-4.16a1.38,1.38,0,0,1,.75-.8Zm35.66-8.37L35.42,14a4.66,4.66,0,0,0-4.64,1.24A5.13,5.13,0,0,0,29.54,20a7.3,7.3,0,0,0,.26.79c.3.81.69.59-.6,1.94a11.08,11.08,0,0,1-1.16,1,18.9,18.9,0,0,1-3.34,2c-1.46.67-.39.44-2.2-.25-2-.74-3.36,0-3.74-.09A5,5,0,0,1,18.1,25l-.63-.45a6.92,6.92,0,0,1-.56-.53,13.49,13.49,0,0,1-1.76-2l-.68-1c-1.22-1.92-.66-.83,0-2.86a5.44,5.44,0,0,0,0-3.27,1.35,1.35,0,0,1-.11-.46,5,5,0,0,1,1-1.1l.38-.34a19.14,19.14,0,0,1,1.71-1.18c.32-.2.87-.41,1.29-.63a4.27,4.27,0,0,1,.66-.29c.66-.23.9-.61,1.41-.29a6.15,6.15,0,0,0,4,.57A5.27,5.27,0,0,0,27.5,9.93a3.52,3.52,0,0,0,1.3-3.3c-.13-.68-.66-.77.65-1.79a8.63,8.63,0,0,1,1.8-1l.52-.21c.16-.08.07,0,.16-.12.43,0,.76-.36,1.26-.13a12.8,12.8,0,0,0,3.51,1A17,17,0,0,1,40,7c.21.22,1.37,1.28,1.3,1.63a4.14,4.14,0,0,0,.25,2.52,7.29,7.29,0,0,0,2.61,3.45c1.44,1.05,3.55,1.26,2.88-1.42-.42-1.65-2.59-4.48-4-5.1a2.29,2.29,0,0,0-.56-.17c-.66-.1-.3.17-1.44-.84l-3.05-3c0-.28.15-.51-.35-1-1-.83-3.64-1.74-4.9-2.19-2.89-1-2.37.53-1.73.92.11.29.18.11.26.4a6.33,6.33,0,0,1-2.19,1.09A15.08,15.08,0,0,1,26.52,4a6.39,6.39,0,0,0-5.42.24,4.19,4.19,0,0,0-1.74,1.53c-1,1.5-.26,2.18-.6,2.71L18,9.39c-.19.21-.47.38-.88.77s-.62.49-.92.74-.71.49-1,.69l-2,1.27c-.3.12-.35,0-.61-.17a3.07,3.07,0,0,0-.6-.22c-4-.91-7.49,4.61-5.5,8a3.45,3.45,0,0,0,4.55,1.43c1-.43.83-.77,2,.48a15.38,15.38,0,0,1,2.54,4c.77,1.57.48.87,0,2.29a5.64,5.64,0,0,0,5.18,7.4,5.34,5.34,0,0,0,5.4-4.5c.3-1.82-.44-2.22,0-2.92a15.93,15.93,0,0,1,5-4.85c.16-.09.37-.24.52-.32.41-.19.72.51,1.79.64a4.89,4.89,0,0,0,3.77-.46,5.08,5.08,0,0,0,1.78-6.59c-.4-.8-1.49-2.26-2.23-2.46Zm-1.21-5.1h0l-.25-.12h0l-.08,0h0l-.14,0A2.3,2.3,0,0,1,34,8.38a1.34,1.34,0,0,1-.18-1.05c.15-.43.43-.49.65-.66l0,0a4.2,4.2,0,0,1,1.1.08,1.83,1.83,0,0,1,.43.19c.73.41,1.5,1.38.9,2.17-.37.5-.69.33-1.31.44Zm-14.87,31a1.72,1.72,0,0,1,1.12,2,1.75,1.75,0,0,1-2.26.85l-.05,0c-.66-.22-1.59-1-1.3-1.94a1.57,1.57,0,0,1,1.46-1,2.72,2.72,0,0,1,1,.16ZM48.28,32.2c0-1.6.77-5.75,2.17-5.71.38.61,0,2-.05,2.74-.2-.09-.08-.13-.28-.2a3.23,3.23,0,0,0-.58,2.75c.3,0,.05,0,.2-.07l.14-.11A9.27,9.27,0,0,1,49.49,33c-.25.83-.18.76-.59,1.16-.26,0-.12,0-.33-.13a43.36,43.36,0,0,0-2.87,4c-.7,1.16-.29.75-.63,1.65-.62,1.6-2.82,4-4.63,4.5a2.85,2.85,0,0,1-1,.06c-.24,0-.55.26-.77.39a33,33,0,0,0-4,2.85c-.47.45-.21.11-.4.74a1.18,1.18,0,0,1-.54.6,10.28,10.28,0,0,1-5.33,1.54c-.85,0-1.9-.08-2.27-.56s.4-1.52.75-1.76A7.55,7.55,0,0,1,31,46.75a6.19,6.19,0,0,1,1.36,0c.52.07.56.25,1,0,.66-.32,1.25-.6,1.82-.92a18,18,0,0,0,1.7-1,7.66,7.66,0,0,0,1.46-1.3,3,3,0,0,1-.12-1.5,6.27,6.27,0,0,1,1.79-3.34c.86-.88,2.72-2.13,4.16-1.73.74.21.3.51,1.16-.25.19-.17.31-.3.53-.51a13.47,13.47,0,0,0,1.91-2.34c.61-1,.47-.79.47-1.67ZM46.7,26.94a2.66,2.66,0,0,0-1.81-.75c-1.9,0-3.36,1.87-3.94,3.67a6.25,6.25,0,0,0-.18,3.35c.1.35.32.6.1.92a14.33,14.33,0,0,1-4.92,4c-.56.3-.4.24-.93,0-3.12-1.39-7.6,1.05-7.69,4.28a3.19,3.19,0,0,0,.13,1.16c.06.15.12.31.18.44a3.7,3.7,0,0,1,.24.42,4.84,4.84,0,0,1-1.51,1.22c-.61.35-3.47,1.66-4,1.48a6.88,6.88,0,0,0-2.19-.61,9.6,9.6,0,0,0-1.33-.08,1.44,1.44,0,0,1-1.1-.29A12.15,12.15,0,0,1,16.07,45c-.45-.37-2.76-2.44-2.77-2.82a3.5,3.5,0,0,0,.24-2.69C12.25,34.58,5.31,33,5.84,38c.2,1.85,1.37,2.07.8,2.88a1,1,0,0,1-.59.43l-.16,0,0,0,0,0,0,0a10.24,10.24,0,0,0,1.05,1.21c.14-.05.66-.63,1.3-.67.45,0,1.59,1.45,3.62,1.21.48-.05.35-.11.73.16a20.17,20.17,0,0,1,3,2.78,10.53,10.53,0,0,1,.91,1.06c-.21.43-.5.72-.06,1.25a8.37,8.37,0,0,0,3.51,1.72A8.69,8.69,0,0,0,23,50.3c.59-.07,1.53-.33,1.53-1.06,0-.37-.17-.42-.2-.75a10.85,10.85,0,0,1,1.09-.87,26.15,26.15,0,0,1,3.87-2,3,3,0,0,1,.74.18c3,.72,7-1.74,7-4.67,0-.75-.32-.63.89-2a25.74,25.74,0,0,1,3-2.88c1.64-1.29.77-.82,2-.52,2.36.57,4.73-2.68,4.73-5.84a3.54,3.54,0,0,1,.47-1.94A15.21,15.21,0,0,1,50,24.87c.17.11.4.69.65.51a8.2,8.2,0,0,0,0-2.32c-.07-.2-.36.18-.59-1.31a8,8,0,0,1-.08-.84c0-.91.2-.51.24-.73a12.94,12.94,0,0,0-.6-2.29c-.47,0-.54.44-.6,1a12.77,12.77,0,0,0,.16,3c0,.38.25,1,.28,1.33C49.49,24.24,47.4,26.76,46.7,26.94Z"/><g class="cls-2"><text class="cls-3" transform="translate(161.01 50.46) scale(1.01 1)">TRUE VID<tspan class="cls-4" x="48.44" y="0">E</tspan><tspan class="cls-5" x="54.28" y="0">O</tspan><tspan class="cls-6" x="62.33" y="0">.</tspan></text><text class="cls-2"/><text class="cls-7" transform="translate(228.97 50.32) scale(1.01 1)">ANYWHERE.</text></g><path class="cls-8" d="M86.44,7.18,75.55,33.23a14.38,14.38,0,0,1-1.15,2.22,10.74,10.74,0,0,1-1.26,1.65,6.5,6.5,0,0,1-1.18,1,1.71,1.71,0,0,1-.93.37h-.48a1.7,1.7,0,0,1-1-.42A6.42,6.42,0,0,1,68.43,37a15.27,15.27,0,0,1-1.22-1.68,12.21,12.21,0,0,1-1-2l-10.9-26h5.12L70.86,31.94,81.32,7.18Z"/><path class="cls-8" d="M92.61,7.18H97V38.44H92.61Z"/><path class="cls-8" d="M125.82,12.39l13.54,26.05H103.2l13.5-26a18.78,18.78,0,0,1,2.52-3.87c.81-.89,1.35-1.34,1.61-1.34h.87a1.2,1.2,0,0,1,.6.21,3.29,3.29,0,0,1,.83.8c.32.39.7.93,1.15,1.6S125.24,11.33,125.82,12.39Zm5.73,20.9L121.3,13.68h-.08L110.93,33.29Z"/><path class="cls-9" d="M169.58,15.07V12.39H158.25c-3.68,0-6.35.89-8,2.66s-2.52,4.39-2.52,7.87.83,6.1,2.5,7.79,4.33,2.52,8,2.52H174v5.21H158a22.75,22.75,0,0,1-6.64-.85,10.47,10.47,0,0,1-4.58-2.71,11.32,11.32,0,0,1-2.67-4.79,25.38,25.38,0,0,1-.87-7.12q0-8.1,3.58-11.95t11.23-3.84H174v7.89Z"/><path class="cls-9" d="M202.75,12.39,216.3,38.44H180.13l13.5-26a18.78,18.78,0,0,1,2.52-3.87c.81-.89,1.35-1.34,1.61-1.34h.87a1.2,1.2,0,0,1,.6.21,3.14,3.14,0,0,1,.83.8c.32.39.7.93,1.15,1.6S202.17,11.33,202.75,12.39Zm5.73,20.9L198.24,13.68h-.09L187.86,33.29Z"/><path class="cls-9" d="M226.89,16.31c0,2.62,1,3.92,2.91,3.92h.39v5.16q-7.73,0-7.73-7.48v-3q0-7.69,7.64-7.69h23.05v5.21H229.8Q226.89,12.39,226.89,16.31Zm21.84,13q0-3.91-2.91-3.92h-.39V20.23A8.25,8.25,0,0,1,251.2,22q2,1.8,2,5.67v3.05c0,2.58-.6,4.5-1.82,5.78s-3.14,1.9-5.77,1.9h-23.1V33.23h23.36C247.76,33.23,248.73,31.93,248.73,29.31Z"/><path class="cls-9" d="M291.27,7.18v5.21H278.12V38.44h-4.39v-26H260.58V7.18Z"/></g></g></svg>
